<svg width="425" height="151" viewBox="0 0 425 151" fill="none" xmlns="http://www.w3.org/2000/svg">
<path d="M226.224 20.472C226.224 24.672 225.42 27.9 223.812 30.156C222.228 32.388 220.032 33.504 217.224 33.504C214.416 33.504 212.208 32.388 210.6 30.156C209.016 27.9 208.224 24.672 208.224 20.472C208.224 18.384 208.428 16.536 208.836 14.928C209.268 13.32 209.88 11.964 210.672 10.86C211.464 9.756 212.412 8.916 213.516 8.34C214.62 7.764 215.856 7.476 217.224 7.476C220.032 7.476 222.228 8.604 223.812 10.86C225.42 13.092 226.224 16.296 226.224 20.472ZM220.752 20.472C220.752 19.224 220.692 18.096 220.572 17.088C220.452 16.056 220.26 15.168 219.996 14.424C219.732 13.68 219.372 13.104 218.916 12.696C218.46 12.288 217.896 12.084 217.224 12.084C216.552 12.084 215.988 12.288 215.532 12.696C215.1 13.104 214.74 13.68 214.452 14.424C214.188 15.168 213.996 16.056 213.876 17.088C213.756 18.096 213.696 19.224 213.696 20.472C213.696 21.72 213.756 22.86 213.876 23.892C213.996 24.924 214.188 25.812 214.452 26.556C214.74 27.3 215.1 27.876 215.532 28.284C215.988 28.692 216.552 28.896 217.224 28.896C217.896 28.896 218.46 28.692 218.916 28.284C219.372 27.876 219.732 27.3 219.996 26.556C220.26 25.812 220.452 24.924 220.572 23.892C220.692 22.86 220.752 21.72 220.752 20.472ZM241.465 14.46C241.465 16.716 240.889 18.444 239.737 19.644C238.585 20.844 237.037 21.444 235.093 21.444C233.149 21.444 231.601 20.844 230.449 19.644C229.297 18.444 228.721 16.716 228.721 14.46C228.721 12.204 229.297 10.476 230.449 9.276C231.601 8.076 233.149 7.476 235.093 7.476C237.037 7.476 238.585 8.076 239.737 9.276C240.889 10.476 241.465 12.204 241.465 14.46ZM237.397 14.46C237.397 13.236 237.181 12.348 236.749 11.796C236.317 11.244 235.765 10.968 235.093 10.968C234.397 10.968 233.833 11.244 233.401 11.796C232.993 12.348 232.789 13.236 232.789 14.46C232.789 15.684 232.993 16.584 233.401 17.16C233.833 17.712 234.397 17.988 235.093 17.988C235.765 17.988 236.317 17.712 236.749 17.16C237.181 16.584 237.397 15.684 237.397 14.46ZM248.485 8.052H253.489L239.413 33H234.409L248.485 8.052ZM259.249 26.592C259.249 28.848 258.673 30.576 257.521 31.776C256.369 32.976 254.821 33.576 252.877 33.576C250.933 33.576 249.385 32.976 248.233 31.776C247.081 30.576 246.505 28.848 246.505 26.592C246.505 24.336 247.081 22.608 248.233 21.408C249.385 20.208 250.933 19.608 252.877 19.608C254.821 19.608 256.369 20.208 257.521 21.408C258.673 22.608 259.249 24.336 259.249 26.592ZM255.181 26.592C255.181 25.368 254.965 24.48 254.533 23.928C254.101 23.376 253.549 23.1 252.877 23.1C252.181 23.1 251.617 23.376 251.185 23.928C250.777 24.48 250.573 25.368 250.573 26.592C250.573 27.816 250.777 28.716 251.185 29.292C251.617 29.844 252.181 30.12 252.877 30.12C253.549 30.12 254.101 29.844 254.533 29.292C254.965 28.716 255.181 27.816 255.181 26.592Z" fill="#FB3535"/>
<path d="M2.52 13.236C3.216 12.948 3.936 12.624 4.68 12.264C5.448 11.88 6.192 11.472 6.912 11.04C7.632 10.584 8.316 10.116 8.964 9.636C9.636 9.132 10.236 8.604 10.764 8.052H14.508V33H9.144V15.036C8.424 15.516 7.62 15.96 6.732 16.368C5.844 16.752 4.98 17.088 4.14 17.376L2.52 13.236ZM39.6849 20.472C39.6849 24.672 38.8809 27.9 37.2729 30.156C35.6889 32.388 33.4929 33.504 30.6849 33.504C27.8769 33.504 25.6689 32.388 24.0609 30.156C22.4769 27.9 21.6849 24.672 21.6849 20.472C21.6849 18.384 21.8889 16.536 22.2969 14.928C22.7289 13.32 23.3409 11.964 24.1329 10.86C24.9249 9.756 25.8729 8.916 26.9769 8.34C28.0809 7.764 29.3169 7.476 30.6849 7.476C33.4929 7.476 35.6889 8.604 37.2729 10.86C38.8809 13.092 39.6849 16.296 39.6849 20.472ZM34.2129 20.472C34.2129 19.224 34.1529 18.096 34.0329 17.088C33.9129 16.056 33.7209 15.168 33.4569 14.424C33.1929 13.68 32.8329 13.104 32.3769 12.696C31.9209 12.288 31.3569 12.084 30.6849 12.084C30.0129 12.084 29.4489 12.288 28.9929 12.696C28.5609 13.104 28.2009 13.68 27.9129 14.424C27.6489 15.168 27.4569 16.056 27.3369 17.088C27.2169 18.096 27.1569 19.224 27.1569 20.472C27.1569 21.72 27.2169 22.86 27.3369 23.892C27.4569 24.924 27.6489 25.812 27.9129 26.556C28.2009 27.3 28.5609 27.876 28.9929 28.284C29.4489 28.692 30.0129 28.896 30.6849 28.896C31.3569 28.896 31.9209 28.692 32.3769 28.284C32.8329 27.876 33.1929 27.3 33.4569 26.556C33.7209 25.812 33.9129 24.924 34.0329 23.892C34.1529 22.86 34.2129 21.72 34.2129 20.472ZM61.0543 14.604C60.1183 15.828 59.1223 17.16 58.0663 18.6C57.0103 20.04 56.1223 21.516 55.4023 23.028H61.0543V14.604ZM66.3103 8.052V23.028H68.9743V27.42H66.3103V33H61.0543V27.42H50.2903V23.496C50.8183 22.44 51.4783 21.252 52.2703 19.932C53.0623 18.588 53.9383 17.22 54.8983 15.828C55.8823 14.412 56.9143 13.032 57.9943 11.688C59.0743 10.344 60.1543 9.132 61.2343 8.052H66.3103ZM89.2553 20.472C89.2553 24.672 88.4513 27.9 86.8433 30.156C85.2593 32.388 83.0633 33.504 80.2553 33.504C77.4473 33.504 75.2393 32.388 73.6313 30.156C72.0473 27.9 71.2553 24.672 71.2553 20.472C71.2553 18.384 71.4593 16.536 71.8673 14.928C72.2993 13.32 72.9113 11.964 73.7033 10.86C74.4953 9.756 75.4433 8.916 76.5473 8.34C77.6513 7.764 78.8873 7.476 80.2553 7.476C83.0633 7.476 85.2593 8.604 86.8433 10.86C88.4513 13.092 89.2553 16.296 89.2553 20.472ZM83.7833 20.472C83.7833 19.224 83.7233 18.096 83.6033 17.088C83.4833 16.056 83.2913 15.168 83.0273 14.424C82.7633 13.68 82.4033 13.104 81.9473 12.696C81.4913 12.288 80.9273 12.084 80.2553 12.084C79.5833 12.084 79.0193 12.288 78.5633 12.696C78.1313 13.104 77.7713 13.68 77.4833 14.424C77.2193 15.168 77.0273 16.056 76.9073 17.088C76.7873 18.096 76.7273 19.224 76.7273 20.472C76.7273 21.72 76.7873 22.86 76.9073 23.892C77.0273 24.924 77.2193 25.812 77.4833 26.556C77.7713 27.3 78.1313 27.876 78.5633 28.284C79.0193 28.692 79.5833 28.896 80.2553 28.896C80.9273 28.896 81.4913 28.692 81.9473 28.284C82.4033 27.876 82.7633 27.3 83.0273 26.556C83.2913 25.812 83.4833 24.924 83.6033 23.892C83.7233 22.86 83.7833 21.72 83.7833 20.472ZM109.716 20.472C109.716 24.672 108.912 27.9 107.304 30.156C105.72 32.388 103.524 33.504 100.716 33.504C97.9082 33.504 95.7002 32.388 94.0922 30.156C92.5082 27.9 91.7162 24.672 91.7162 20.472C91.7162 18.384 91.9202 16.536 92.3282 14.928C92.7602 13.32 93.3722 11.964 94.1642 10.86C94.9562 9.756 95.9042 8.916 97.0082 8.34C98.1122 7.764 99.3482 7.476 100.716 7.476C103.524 7.476 105.72 8.604 107.304 10.86C108.912 13.092 109.716 16.296 109.716 20.472ZM104.244 20.472C104.244 19.224 104.184 18.096 104.064 17.088C103.944 16.056 103.752 15.168 103.488 14.424C103.224 13.68 102.864 13.104 102.408 12.696C101.952 12.288 101.388 12.084 100.716 12.084C100.044 12.084 99.4802 12.288 99.0242 12.696C98.5922 13.104 98.2322 13.68 97.9442 14.424C97.6802 15.168 97.4882 16.056 97.3682 17.088C97.2482 18.096 97.1882 19.224 97.1882 20.472C97.1882 21.72 97.2482 22.86 97.3682 23.892C97.4882 24.924 97.6802 25.812 97.9442 26.556C98.2322 27.3 98.5922 27.876 99.0242 28.284C99.4802 28.692 100.044 28.896 100.716 28.896C101.388 28.896 101.952 28.692 102.408 28.284C102.864 27.876 103.224 27.3 103.488 26.556C103.752 25.812 103.944 24.924 104.064 23.892C104.184 22.86 104.244 21.72 104.244 20.472ZM119.962 25.656H122.842V22.848H119.962V18.384H122.842V7.296H131.05C134.362 7.296 136.774 7.968 138.286 9.312C139.822 10.656 140.59 12.504 140.59 14.856C140.59 16.248 140.278 17.556 139.654 18.78C139.03 20.004 137.986 20.988 136.522 21.732C135.082 22.476 133.114 22.848 130.618 22.848H128.278V25.656H133.822V29.148H128.278V33H122.842V29.148H119.962V25.656ZM130.762 11.76H128.278V18.384H130.078C131.614 18.384 132.826 18.12 133.714 17.592C134.626 17.064 135.082 16.212 135.082 15.036C135.082 12.852 133.642 11.76 130.762 11.76Z" fill="#355DFB"/>
<path d="M1.204 54V44.298H7.126V45.46H2.562V48.344H6.622V49.478H2.562V52.838H7.476V54H1.204ZM18.092 46.72C17.9054 46.9533 17.6954 47.21 17.462 47.49C17.2287 47.7607 16.986 48.0453 16.734 48.344C16.482 48.6333 16.2254 48.9227 15.964 49.212C15.712 49.5013 15.4694 49.7767 15.236 50.038C15.516 50.3087 15.8054 50.6027 16.104 50.92C16.4027 51.2373 16.692 51.5687 16.972 51.914C17.2614 52.25 17.5367 52.6 17.798 52.964C18.0594 53.3187 18.288 53.664 18.484 54H17.028C16.832 53.692 16.6034 53.37 16.342 53.034C16.09 52.6887 15.824 52.3573 15.544 52.04C15.2734 51.7227 14.998 51.4287 14.718 51.158C14.4474 50.878 14.1954 50.6493 13.962 50.472V54H12.716V50.472C12.4827 50.6493 12.226 50.878 11.946 51.158C11.6754 51.4287 11.4 51.7227 11.12 52.04C10.8494 52.3573 10.5834 52.6887 10.322 53.034C10.07 53.37 9.84605 53.692 9.65005 54H8.20805C8.40405 53.664 8.62805 53.3187 8.88005 52.964C9.14138 52.6093 9.41205 52.264 9.69205 51.928C9.98138 51.5827 10.2754 51.2513 10.574 50.934C10.8727 50.6167 11.162 50.3227 11.442 50.052C11.2087 49.7907 10.9614 49.5153 10.7 49.226C10.448 48.9367 10.196 48.6473 9.94405 48.358C9.69205 48.0593 9.44938 47.7747 9.21605 47.504C8.98271 47.224 8.76805 46.9627 8.57205 46.72H10.014C10.35 47.14 10.7374 47.6067 11.176 48.12C11.6147 48.6333 12.128 49.226 12.716 49.898V46.72H13.962V49.898C14.55 49.226 15.0634 48.6333 15.502 48.12C15.9407 47.6067 16.328 47.14 16.664 46.72H18.092ZM19.0206 50.374C19.0206 49.73 19.114 49.17 19.3006 48.694C19.4873 48.2087 19.7346 47.8073 20.0426 47.49C20.3506 47.1727 20.7053 46.9347 21.1066 46.776C21.508 46.6173 21.9186 46.538 22.3386 46.538C23.3186 46.538 24.07 46.846 24.5926 47.462C25.1153 48.0687 25.3766 48.9973 25.3766 50.248C25.3766 50.304 25.3766 50.3787 25.3766 50.472C25.3766 50.556 25.372 50.6353 25.3626 50.71H20.3786C20.4346 51.466 20.654 52.04 21.0366 52.432C21.4193 52.824 22.0166 53.02 22.8286 53.02C23.286 53.02 23.6686 52.9827 23.9766 52.908C24.294 52.824 24.532 52.7447 24.6906 52.67L24.8726 53.762C24.714 53.846 24.434 53.9347 24.0326 54.028C23.6406 54.1213 23.1926 54.168 22.6886 54.168C22.054 54.168 21.5033 54.0747 21.0366 53.888C20.5793 53.692 20.2013 53.426 19.9026 53.09C19.604 52.754 19.38 52.3573 19.2306 51.9C19.0906 51.4333 19.0206 50.9247 19.0206 50.374ZM24.0186 49.66C24.028 49.072 23.8786 48.5913 23.5706 48.218C23.272 47.8353 22.8566 47.644 22.3246 47.644C22.026 47.644 21.76 47.7047 21.5266 47.826C21.3026 47.938 21.1113 48.0873 20.9526 48.274C20.794 48.4607 20.668 48.6753 20.5746 48.918C20.4906 49.1607 20.4346 49.408 20.4066 49.66H24.0186ZM28.633 48.638C28.5396 49.562 28.4696 50.486 28.423 51.41C28.3763 52.3247 28.339 53.188 28.311 54H27.065C27.0836 53.4307 27.1116 52.838 27.149 52.222C27.1863 51.5967 27.2283 50.9713 27.275 50.346C27.3216 49.7113 27.373 49.0907 27.429 48.484C27.485 47.868 27.5456 47.28 27.611 46.72H28.801C29.0996 47.2053 29.4496 47.8727 29.851 48.722C30.2523 49.562 30.7143 50.5327 31.237 51.634C31.7596 50.5327 32.2216 49.562 32.623 48.722C33.0243 47.8727 33.3743 47.2053 33.673 46.72H34.877C34.9423 47.28 35.003 47.868 35.059 48.484C35.115 49.0907 35.1663 49.7113 35.213 50.346C35.2596 50.9713 35.3016 51.5967 35.339 52.222C35.3763 52.838 35.4043 53.4307 35.423 54H34.135C34.107 53.188 34.0696 52.3247 34.023 51.41C33.9763 50.486 33.9063 49.562 33.813 48.638C33.6636 48.9273 33.491 49.2773 33.295 49.688C33.099 50.0893 32.903 50.5 32.707 50.92C32.5203 51.34 32.343 51.7413 32.175 52.124C32.007 52.5067 31.8763 52.81 31.783 53.034H30.691C30.5883 52.8007 30.4483 52.4927 30.271 52.11C30.103 51.7273 29.921 51.326 29.725 50.906C29.5383 50.4767 29.347 50.0613 29.151 49.66C28.955 49.2493 28.7823 48.9087 28.633 48.638ZM37.0812 50.374C37.0812 49.73 37.1745 49.17 37.3612 48.694C37.5479 48.2087 37.7952 47.8073 38.1032 47.49C38.4112 47.1727 38.7659 46.9347 39.1672 46.776C39.5685 46.6173 39.9792 46.538 40.3992 46.538C41.3792 46.538 42.1305 46.846 42.6532 47.462C43.1759 48.0687 43.4372 48.9973 43.4372 50.248C43.4372 50.304 43.4372 50.3787 43.4372 50.472C43.4372 50.556 43.4325 50.6353 43.4232 50.71H38.4392C38.4952 51.466 38.7145 52.04 39.0972 52.432C39.4799 52.824 40.0772 53.02 40.8892 53.02C41.3465 53.02 41.7292 52.9827 42.0372 52.908C42.3545 52.824 42.5925 52.7447 42.7512 52.67L42.9332 53.762C42.7745 53.846 42.4945 53.9347 42.0932 54.028C41.7012 54.1213 41.2532 54.168 40.7492 54.168C40.1145 54.168 39.5639 54.0747 39.0972 53.888C38.6399 53.692 38.2619 53.426 37.9632 53.09C37.6645 52.754 37.4405 52.3573 37.2912 51.9C37.1512 51.4333 37.0812 50.9247 37.0812 50.374ZM42.0792 49.66C42.0885 49.072 41.9392 48.5913 41.6312 48.218C41.3325 47.8353 40.9172 47.644 40.3852 47.644C40.0865 47.644 39.8205 47.7047 39.5872 47.826C39.3632 47.938 39.1719 48.0873 39.0132 48.274C38.8545 48.4607 38.7285 48.6753 38.6352 48.918C38.5512 49.1607 38.4952 49.408 38.4672 49.66H42.0792ZM48.4715 54.168C47.8835 54.168 47.3655 54.0747 46.9175 53.888C46.4788 53.7013 46.1055 53.44 45.7975 53.104C45.4988 52.768 45.2748 52.3713 45.1255 51.914C44.9762 51.4473 44.9015 50.934 44.9015 50.374C44.9015 49.814 44.9808 49.3007 45.1395 48.834C45.3075 48.3673 45.5408 47.966 45.8395 47.63C46.1382 47.2847 46.5022 47.0187 46.9315 46.832C47.3702 46.636 47.8555 46.538 48.3875 46.538C48.7142 46.538 49.0408 46.566 49.3675 46.622C49.6942 46.678 50.0068 46.7667 50.3055 46.888L50.0115 47.994C49.8155 47.9007 49.5868 47.826 49.3255 47.77C49.0735 47.714 48.8028 47.686 48.5135 47.686C47.7855 47.686 47.2255 47.9147 46.8335 48.372C46.4508 48.8293 46.2595 49.4967 46.2595 50.374C46.2595 50.766 46.3015 51.1253 46.3855 51.452C46.4788 51.7787 46.6188 52.0587 46.8055 52.292C47.0015 52.5253 47.2488 52.7073 47.5475 52.838C47.8462 52.9593 48.2102 53.02 48.6395 53.02C48.9848 53.02 49.2975 52.9873 49.5775 52.922C49.8575 52.8567 50.0768 52.7867 50.2355 52.712L50.4175 53.804C50.3428 53.8507 50.2355 53.8973 50.0955 53.944C49.9555 53.9813 49.7968 54.014 49.6195 54.042C49.4422 54.0793 49.2508 54.1073 49.0455 54.126C48.8495 54.154 48.6582 54.168 48.4715 54.168ZM54.8253 51.172C54.6853 51.172 54.55 51.172 54.4193 51.172C54.2886 51.1627 54.1626 51.1533 54.0413 51.144C53.7426 51.592 53.4533 52.0727 53.1733 52.586C52.9026 53.09 52.66 53.5613 52.4453 54H51.1293C51.2413 53.7293 51.372 53.454 51.5213 53.174C51.6706 52.8847 51.82 52.6047 51.9693 52.334C52.128 52.0633 52.2866 51.8067 52.4453 51.564C52.604 51.3213 52.7533 51.102 52.8933 50.906C52.632 50.8127 52.4173 50.7007 52.2493 50.57C52.0813 50.43 51.946 50.276 51.8433 50.108C51.7406 49.94 51.666 49.7627 51.6193 49.576C51.582 49.38 51.5633 49.184 51.5633 48.988C51.5633 48.5773 51.638 48.218 51.7873 47.91C51.946 47.602 52.1606 47.35 52.4313 47.154C52.702 46.9487 53.0193 46.7947 53.3833 46.692C53.7566 46.5893 54.1626 46.538 54.6013 46.538C55.2173 46.538 55.74 46.566 56.1693 46.622C56.5986 46.678 56.958 46.7433 57.2473 46.818V54H55.9593V51.172H54.8253ZM55.9593 47.686C55.8566 47.6673 55.684 47.6487 55.4413 47.63C55.208 47.6113 54.9373 47.602 54.6293 47.602C54.0973 47.602 53.668 47.714 53.3413 47.938C53.0146 48.1527 52.8513 48.498 52.8513 48.974C52.8513 49.4407 53.0193 49.7627 53.3553 49.94C53.6913 50.1173 54.1253 50.206 54.6573 50.206H55.9593V47.686ZM60.3112 46.72V48.862C60.3112 49.4127 60.4512 49.8 60.7312 50.024C61.0112 50.2387 61.3939 50.346 61.8792 50.346C62.2339 50.346 62.5279 50.3273 62.7612 50.29C63.0039 50.2527 63.2186 50.2107 63.4052 50.164V46.72H64.7072V54H63.4052V51.172C63.3306 51.1907 63.2326 51.214 63.1112 51.242C62.9899 51.27 62.8499 51.298 62.6912 51.326C62.5419 51.3447 62.3832 51.3633 62.2152 51.382C62.0472 51.4007 61.8839 51.41 61.7252 51.41C61.3239 51.41 60.9552 51.368 60.6192 51.284C60.2926 51.2 60.0079 51.06 59.7652 50.864C59.5319 50.668 59.3452 50.4113 59.2052 50.094C59.0746 49.7673 59.0092 49.3613 59.0092 48.876V46.72H60.3112ZM72.9141 54H71.6121V50.78H68.2521V54H66.9501V46.72H68.2521V49.688H71.6121V46.72H72.9141V54ZM77.8272 50.402C77.5752 50.402 77.3279 50.4113 77.0852 50.43C76.8519 50.4393 76.6419 50.4673 76.4552 50.514V53.02C76.5112 53.0293 76.5905 53.0387 76.6932 53.048C76.8052 53.0573 76.9219 53.0667 77.0432 53.076C77.1739 53.076 77.3045 53.0807 77.4352 53.09C77.5659 53.09 77.6825 53.09 77.7852 53.09C78.3545 53.09 78.7932 52.9827 79.1012 52.768C79.4092 52.5533 79.5632 52.208 79.5632 51.732C79.5632 51.4987 79.5119 51.298 79.4092 51.13C79.3159 50.962 79.1852 50.8267 79.0172 50.724C78.8585 50.612 78.6765 50.5327 78.4712 50.486C78.2659 50.43 78.0512 50.402 77.8272 50.402ZM75.1532 46.72H76.4552V49.506C76.6139 49.4687 76.8425 49.4313 77.1412 49.394C77.4492 49.3567 77.7432 49.338 78.0232 49.338C78.4059 49.338 78.7699 49.3847 79.1152 49.478C79.4605 49.562 79.7639 49.702 80.0252 49.898C80.2865 50.0847 80.4919 50.332 80.6412 50.64C80.7999 50.9387 80.8792 51.298 80.8792 51.718C80.8792 52.1567 80.8045 52.53 80.6552 52.838C80.5059 53.146 80.2959 53.398 80.0252 53.594C79.7545 53.79 79.4279 53.93 79.0452 54.014C78.6625 54.1073 78.2425 54.154 77.7852 54.154C77.3465 54.154 76.9032 54.126 76.4552 54.07C76.0072 54.0233 75.5732 53.9487 75.1532 53.846V46.72ZM83.5252 54H82.2232V46.72H83.5252V54ZM91.8806 46.72V54H90.6206V48.456C90.3406 48.8107 90.0326 49.226 89.6966 49.702C89.3606 50.178 89.0246 50.6727 88.6886 51.186C88.3526 51.69 88.0306 52.1893 87.7226 52.684C87.4146 53.1787 87.1486 53.6173 86.9246 54H85.7626V46.72H87.0226V51.956C87.2652 51.5547 87.5406 51.116 87.8486 50.64C88.1566 50.1547 88.4739 49.6787 88.8006 49.212C89.1366 48.736 89.4679 48.2833 89.7946 47.854C90.1306 47.4153 90.4432 47.0373 90.7326 46.72H91.8806ZM88.8286 45.544C88.2406 45.544 87.7599 45.3947 87.3866 45.096C87.0226 44.7973 86.8032 44.382 86.7286 43.85L87.7226 43.584C87.7972 43.8827 87.9232 44.1253 88.1006 44.312C88.2779 44.4987 88.5206 44.592 88.8286 44.592C89.1366 44.592 89.3792 44.4987 89.5566 44.312C89.7339 44.1253 89.8599 43.8827 89.9346 43.584L90.9146 43.85C90.8399 44.382 90.6206 44.7973 90.2566 45.096C89.8926 45.3947 89.4166 45.544 88.8286 45.544ZM103.208 54H101.906V47.812H98.6583V54H97.3563V46.72H103.208V54ZM107.984 47.812C107.984 48.12 107.975 48.4513 107.956 48.806C107.947 49.1513 107.923 49.5013 107.886 49.856C107.849 50.2013 107.797 50.5467 107.732 50.892C107.667 51.228 107.583 51.5453 107.48 51.844C107.377 52.1427 107.247 52.4227 107.088 52.684C106.939 52.9453 106.752 53.1787 106.528 53.384C106.304 53.58 106.043 53.748 105.744 53.888C105.445 54.0187 105.095 54.1027 104.694 54.14L104.512 53.048C104.969 52.9547 105.329 52.782 105.59 52.53C105.861 52.278 106.075 51.97 106.234 51.606C106.374 51.2887 106.477 50.9293 106.542 50.528C106.607 50.1267 106.654 49.7113 106.682 49.282C106.71 48.8433 106.724 48.4047 106.724 47.966C106.733 47.5273 106.738 47.112 106.738 46.72H111.582V54H110.28V47.812H107.984ZM116.281 53.062C116.589 53.062 116.86 53.0573 117.093 53.048C117.336 53.0293 117.537 53.0013 117.695 52.964V50.794C117.602 50.7473 117.448 50.71 117.233 50.682C117.028 50.6447 116.776 50.626 116.477 50.626C116.281 50.626 116.071 50.64 115.847 50.668C115.633 50.696 115.432 50.7567 115.245 50.85C115.068 50.934 114.919 51.0553 114.797 51.214C114.676 51.3633 114.615 51.564 114.615 51.816C114.615 52.2827 114.765 52.6093 115.063 52.796C115.362 52.9733 115.768 53.062 116.281 53.062ZM116.169 46.538C116.692 46.538 117.131 46.608 117.485 46.748C117.849 46.8787 118.139 47.07 118.353 47.322C118.577 47.5647 118.736 47.8587 118.829 48.204C118.923 48.54 118.969 48.9133 118.969 49.324V53.874C118.857 53.8927 118.699 53.9207 118.493 53.958C118.297 53.986 118.073 54.014 117.821 54.042C117.569 54.07 117.294 54.0933 116.995 54.112C116.706 54.14 116.417 54.154 116.127 54.154C115.717 54.154 115.339 54.112 114.993 54.028C114.648 53.944 114.349 53.8133 114.097 53.636C113.845 53.4493 113.649 53.2067 113.509 52.908C113.369 52.6093 113.299 52.25 113.299 51.83C113.299 51.4287 113.379 51.0833 113.537 50.794C113.705 50.5047 113.929 50.2713 114.209 50.094C114.489 49.9167 114.816 49.786 115.189 49.702C115.563 49.618 115.955 49.576 116.365 49.576C116.496 49.576 116.631 49.5853 116.771 49.604C116.911 49.6133 117.042 49.632 117.163 49.66C117.294 49.6787 117.406 49.6973 117.499 49.716C117.593 49.7347 117.658 49.7487 117.695 49.758V49.394C117.695 49.1793 117.672 48.9693 117.625 48.764C117.579 48.5493 117.495 48.3627 117.373 48.204C117.252 48.036 117.084 47.9053 116.869 47.812C116.664 47.7093 116.393 47.658 116.057 47.658C115.628 47.658 115.25 47.6907 114.923 47.756C114.606 47.812 114.368 47.8727 114.209 47.938L114.055 46.86C114.223 46.7853 114.503 46.7153 114.895 46.65C115.287 46.5753 115.712 46.538 116.169 46.538ZM126.27 46.72V47.812H123.904V54H122.602V47.812H120.236V46.72H126.27ZM127.206 50.374C127.206 49.73 127.3 49.17 127.486 48.694C127.673 48.2087 127.92 47.8073 128.228 47.49C128.536 47.1727 128.891 46.9347 129.292 46.776C129.694 46.6173 130.104 46.538 130.524 46.538C131.504 46.538 132.256 46.846 132.778 47.462C133.301 48.0687 133.562 48.9973 133.562 50.248C133.562 50.304 133.562 50.3787 133.562 50.472C133.562 50.556 133.558 50.6353 133.548 50.71H128.564C128.62 51.466 128.84 52.04 129.222 52.432C129.605 52.824 130.202 53.02 131.014 53.02C131.472 53.02 131.854 52.9827 132.162 52.908C132.48 52.824 132.718 52.7447 132.876 52.67L133.058 53.762C132.9 53.846 132.62 53.9347 132.218 54.028C131.826 54.1213 131.378 54.168 130.874 54.168C130.24 54.168 129.689 54.0747 129.222 53.888C128.765 53.692 128.387 53.426 128.088 53.09C127.79 52.754 127.566 52.3573 127.416 51.9C127.276 51.4333 127.206 50.9247 127.206 50.374ZM132.204 49.66C132.214 49.072 132.064 48.5913 131.756 48.218C131.458 47.8353 131.042 47.644 130.51 47.644C130.212 47.644 129.946 47.7047 129.712 47.826C129.488 47.938 129.297 48.0873 129.138 48.274C128.98 48.4607 128.854 48.6753 128.76 48.918C128.676 49.1607 128.62 49.408 128.592 49.66H132.204ZM144.407 46.72C144.22 46.9533 144.01 47.21 143.777 47.49C143.543 47.7607 143.301 48.0453 143.049 48.344C142.797 48.6333 142.54 48.9227 142.279 49.212C142.027 49.5013 141.784 49.7767 141.551 50.038C141.831 50.3087 142.12 50.6027 142.419 50.92C142.717 51.2373 143.007 51.5687 143.287 51.914C143.576 52.25 143.851 52.6 144.113 52.964C144.374 53.3187 144.603 53.664 144.799 54H143.343C143.147 53.692 142.918 53.37 142.657 53.034C142.405 52.6887 142.139 52.3573 141.859 52.04C141.588 51.7227 141.313 51.4287 141.033 51.158C140.762 50.878 140.51 50.6493 140.277 50.472V54H139.031V50.472C138.797 50.6493 138.541 50.878 138.261 51.158C137.99 51.4287 137.715 51.7227 137.435 52.04C137.164 52.3573 136.898 52.6887 136.637 53.034C136.385 53.37 136.161 53.692 135.965 54H134.523C134.719 53.664 134.943 53.3187 135.195 52.964C135.456 52.6093 135.727 52.264 136.007 51.928C136.296 51.5827 136.59 51.2513 136.889 50.934C137.187 50.6167 137.477 50.3227 137.757 50.052C137.523 49.7907 137.276 49.5153 137.015 49.226C136.763 48.9367 136.511 48.6473 136.259 48.358C136.007 48.0593 135.764 47.7747 135.531 47.504C135.297 47.224 135.083 46.9627 134.887 46.72H136.329C136.665 47.14 137.052 47.6067 137.491 48.12C137.929 48.6333 138.443 49.226 139.031 49.898V46.72H140.277V49.898C140.865 49.226 141.378 48.6333 141.817 48.12C142.255 47.6067 142.643 47.14 142.979 46.72H144.407Z" fill="black"/>
<path d="M215.208 124.54C214.56 124.54 213.876 124.492 213.156 124.396C212.436 124.324 211.74 124.216 211.068 124.072C210.396 123.928 209.784 123.772 209.232 123.604C208.68 123.436 208.248 123.28 207.936 123.136L208.98 118.672C209.604 118.936 210.396 119.224 211.356 119.536C212.34 119.824 213.552 119.968 214.992 119.968C216.648 119.968 217.86 119.656 218.628 119.032C219.396 118.408 219.78 117.568 219.78 116.512C219.78 115.864 219.636 115.324 219.348 114.892C219.084 114.436 218.712 114.076 218.232 113.812C217.752 113.524 217.176 113.332 216.504 113.236C215.856 113.116 215.16 113.056 214.416 113.056H212.328V108.736H214.704C215.232 108.736 215.736 108.688 216.216 108.592C216.72 108.496 217.164 108.34 217.548 108.124C217.932 107.884 218.232 107.572 218.448 107.188C218.688 106.78 218.808 106.276 218.808 105.676C218.808 105.22 218.712 104.824 218.52 104.488C218.328 104.152 218.076 103.876 217.764 103.66C217.476 103.444 217.128 103.288 216.72 103.192C216.336 103.072 215.94 103.012 215.532 103.012C214.5 103.012 213.54 103.168 212.652 103.48C211.788 103.792 210.996 104.176 210.276 104.632L208.368 100.708C208.752 100.468 209.196 100.216 209.7 99.952C210.228 99.688 210.804 99.448 211.428 99.232C212.052 99.016 212.712 98.836 213.408 98.692C214.128 98.548 214.884 98.476 215.676 98.476C217.14 98.476 218.4 98.656 219.456 99.016C220.536 99.352 221.424 99.844 222.12 100.492C222.816 101.116 223.332 101.86 223.668 102.724C224.004 103.564 224.172 104.488 224.172 105.496C224.172 106.48 223.896 107.44 223.344 108.376C222.792 109.288 222.048 109.984 221.112 110.464C222.408 110.992 223.404 111.784 224.1 112.84C224.82 113.872 225.18 115.12 225.18 116.584C225.18 117.736 224.988 118.804 224.604 119.788C224.22 120.748 223.62 121.588 222.804 122.308C221.988 123.004 220.944 123.556 219.672 123.964C218.424 124.348 216.936 124.54 215.208 124.54ZM246.685 111.472C246.685 115.672 245.881 118.9 244.273 121.156C242.689 123.388 240.493 124.504 237.685 124.504C234.877 124.504 232.669 123.388 231.061 121.156C229.477 118.9 228.685 115.672 228.685 111.472C228.685 109.384 228.889 107.536 229.297 105.928C229.729 104.32 230.341 102.964 231.133 101.86C231.925 100.756 232.873 99.916 233.977 99.34C235.081 98.764 236.317 98.476 237.685 98.476C240.493 98.476 242.689 99.604 244.273 101.86C245.881 104.092 246.685 107.296 246.685 111.472ZM241.213 111.472C241.213 110.224 241.153 109.096 241.033 108.088C240.913 107.056 240.721 106.168 240.457 105.424C240.193 104.68 239.833 104.104 239.377 103.696C238.921 103.288 238.357 103.084 237.685 103.084C237.013 103.084 236.449 103.288 235.993 103.696C235.561 104.104 235.201 104.68 234.913 105.424C234.649 106.168 234.457 107.056 234.337 108.088C234.217 109.096 234.157 110.224 234.157 111.472C234.157 112.72 234.217 113.86 234.337 114.892C234.457 115.924 234.649 116.812 234.913 117.556C235.201 118.3 235.561 118.876 235.993 119.284C236.449 119.692 237.013 119.896 237.685 119.896C238.357 119.896 238.921 119.692 239.377 119.284C239.833 118.876 240.193 118.3 240.457 117.556C240.721 116.812 240.913 115.924 241.033 114.892C241.153 113.86 241.213 112.72 241.213 111.472ZM275.794 111.472C275.794 115.672 274.99 118.9 273.382 121.156C271.798 123.388 269.602 124.504 266.794 124.504C263.986 124.504 261.778 123.388 260.17 121.156C258.586 118.9 257.794 115.672 257.794 111.472C257.794 109.384 257.998 107.536 258.406 105.928C258.838 104.32 259.45 102.964 260.242 101.86C261.034 100.756 261.982 99.916 263.086 99.34C264.19 98.764 265.426 98.476 266.794 98.476C269.602 98.476 271.798 99.604 273.382 101.86C274.99 104.092 275.794 107.296 275.794 111.472ZM270.322 111.472C270.322 110.224 270.262 109.096 270.142 108.088C270.022 107.056 269.83 106.168 269.566 105.424C269.302 104.68 268.942 104.104 268.486 103.696C268.03 103.288 267.466 103.084 266.794 103.084C266.122 103.084 265.558 103.288 265.102 103.696C264.67 104.104 264.31 104.68 264.022 105.424C263.758 106.168 263.566 107.056 263.446 108.088C263.326 109.096 263.266 110.224 263.266 111.472C263.266 112.72 263.326 113.86 263.446 114.892C263.566 115.924 263.758 116.812 264.022 117.556C264.31 118.3 264.67 118.876 265.102 119.284C265.558 119.692 266.122 119.896 266.794 119.896C267.466 119.896 268.03 119.692 268.486 119.284C268.942 118.876 269.302 118.3 269.566 117.556C269.83 116.812 270.022 115.924 270.142 114.892C270.262 113.86 270.322 112.72 270.322 111.472ZM296.255 111.472C296.255 115.672 295.451 118.9 293.843 121.156C292.259 123.388 290.063 124.504 287.255 124.504C284.447 124.504 282.239 123.388 280.631 121.156C279.047 118.9 278.255 115.672 278.255 111.472C278.255 109.384 278.459 107.536 278.867 105.928C279.299 104.32 279.911 102.964 280.703 101.86C281.495 100.756 282.443 99.916 283.547 99.34C284.651 98.764 285.887 98.476 287.255 98.476C290.063 98.476 292.259 99.604 293.843 101.86C295.451 104.092 296.255 107.296 296.255 111.472ZM290.783 111.472C290.783 110.224 290.723 109.096 290.603 108.088C290.483 107.056 290.291 106.168 290.027 105.424C289.763 104.68 289.403 104.104 288.947 103.696C288.491 103.288 287.927 103.084 287.255 103.084C286.583 103.084 286.019 103.288 285.563 103.696C285.131 104.104 284.771 104.68 284.483 105.424C284.219 106.168 284.027 107.056 283.907 108.088C283.787 109.096 283.727 110.224 283.727 111.472C283.727 112.72 283.787 113.86 283.907 114.892C284.027 115.924 284.219 116.812 284.483 117.556C284.771 118.3 285.131 118.876 285.563 119.284C286.019 119.692 286.583 119.896 287.255 119.896C287.927 119.896 288.491 119.692 288.947 119.284C289.403 118.876 289.763 118.3 290.027 117.556C290.291 116.812 290.483 115.924 290.603 114.892C290.723 113.86 290.783 112.72 290.783 111.472ZM316.716 111.472C316.716 115.672 315.912 118.9 314.304 121.156C312.72 123.388 310.524 124.504 307.716 124.504C304.908 124.504 302.7 123.388 301.092 121.156C299.508 118.9 298.716 115.672 298.716 111.472C298.716 109.384 298.92 107.536 299.328 105.928C299.76 104.32 300.372 102.964 301.164 101.86C301.956 100.756 302.904 99.916 304.008 99.34C305.112 98.764 306.348 98.476 307.716 98.476C310.524 98.476 312.72 99.604 314.304 101.86C315.912 104.092 316.716 107.296 316.716 111.472ZM311.244 111.472C311.244 110.224 311.184 109.096 311.064 108.088C310.944 107.056 310.752 106.168 310.488 105.424C310.224 104.68 309.864 104.104 309.408 103.696C308.952 103.288 308.388 103.084 307.716 103.084C307.044 103.084 306.48 103.288 306.024 103.696C305.592 104.104 305.232 104.68 304.944 105.424C304.68 106.168 304.488 107.056 304.368 108.088C304.248 109.096 304.188 110.224 304.188 111.472C304.188 112.72 304.248 113.86 304.368 114.892C304.488 115.924 304.68 116.812 304.944 117.556C305.232 118.3 305.592 118.876 306.024 119.284C306.48 119.692 307.044 119.896 307.716 119.896C308.388 119.896 308.952 119.692 309.408 119.284C309.864 118.876 310.224 118.3 310.488 117.556C310.752 116.812 310.944 115.924 311.064 114.892C311.184 113.86 311.244 112.72 311.244 111.472ZM326.962 116.656H329.842V113.848H326.962V109.384H329.842V98.296H338.05C341.362 98.296 343.774 98.968 345.286 100.312C346.822 101.656 347.59 103.504 347.59 105.856C347.59 107.248 347.278 108.556 346.654 109.78C346.03 111.004 344.986 111.988 343.522 112.732C342.082 113.476 340.114 113.848 337.618 113.848H335.278V116.656H340.822V120.148H335.278V124H329.842V120.148H326.962V116.656ZM337.762 102.76H335.278V109.384H337.078C338.614 109.384 339.826 109.12 340.714 108.592C341.626 108.064 342.082 107.212 342.082 106.036C342.082 103.852 340.642 102.76 337.762 102.76Z" fill="#355DFB"/>
<path d="M215.582 135.298V145H214.224V136.46H209.562V145H208.204V135.298H215.582ZM217.503 141.374C217.503 140.73 217.596 140.17 217.783 139.694C217.97 139.209 218.217 138.807 218.525 138.49C218.833 138.173 219.188 137.935 219.589 137.776C219.99 137.617 220.401 137.538 220.821 137.538C221.801 137.538 222.552 137.846 223.075 138.462C223.598 139.069 223.859 139.997 223.859 141.248C223.859 141.304 223.859 141.379 223.859 141.472C223.859 141.556 223.854 141.635 223.845 141.71H218.861C218.917 142.466 219.136 143.04 219.519 143.432C219.902 143.824 220.499 144.02 221.311 144.02C221.768 144.02 222.151 143.983 222.459 143.908C222.776 143.824 223.014 143.745 223.173 143.67L223.355 144.762C223.196 144.846 222.916 144.935 222.515 145.028C222.123 145.121 221.675 145.168 221.171 145.168C220.536 145.168 219.986 145.075 219.519 144.888C219.062 144.692 218.684 144.426 218.385 144.09C218.086 143.754 217.862 143.357 217.713 142.9C217.573 142.433 217.503 141.925 217.503 141.374ZM222.501 140.66C222.51 140.072 222.361 139.591 222.053 139.218C221.754 138.835 221.339 138.644 220.807 138.644C220.508 138.644 220.242 138.705 220.009 138.826C219.785 138.938 219.594 139.087 219.435 139.274C219.276 139.461 219.15 139.675 219.057 139.918C218.973 140.161 218.917 140.408 218.889 140.66H222.501ZM230.783 141.374C230.783 140.525 230.573 139.871 230.153 139.414C229.733 138.957 229.173 138.728 228.473 138.728C228.081 138.728 227.773 138.742 227.549 138.77C227.335 138.798 227.162 138.831 227.031 138.868V143.46C227.19 143.591 227.419 143.717 227.717 143.838C228.016 143.959 228.343 144.02 228.697 144.02C229.071 144.02 229.388 143.955 229.649 143.824C229.92 143.684 230.139 143.497 230.307 143.264C230.475 143.021 230.597 142.741 230.671 142.424C230.746 142.097 230.783 141.747 230.783 141.374ZM232.141 141.374C232.141 141.925 232.067 142.433 231.917 142.9C231.777 143.367 231.567 143.768 231.287 144.104C231.007 144.44 230.662 144.701 230.251 144.888C229.85 145.075 229.388 145.168 228.865 145.168C228.445 145.168 228.072 145.112 227.745 145C227.428 144.888 227.19 144.781 227.031 144.678V147.59H225.729V137.944C226.037 137.869 226.42 137.79 226.877 137.706C227.344 137.613 227.881 137.566 228.487 137.566C229.047 137.566 229.551 137.655 229.999 137.832C230.447 138.009 230.83 138.261 231.147 138.588C231.465 138.915 231.707 139.316 231.875 139.792C232.053 140.259 232.141 140.786 232.141 141.374ZM235.248 144.02C235.304 144.029 235.383 144.039 235.486 144.048C235.588 144.057 235.705 144.067 235.836 144.076C235.966 144.076 236.102 144.081 236.242 144.09C236.391 144.09 236.531 144.09 236.662 144.09C236.932 144.09 237.189 144.071 237.432 144.034C237.684 143.997 237.898 143.931 238.076 143.838C238.262 143.745 238.407 143.623 238.51 143.474C238.622 143.315 238.678 143.115 238.678 142.872C238.678 142.639 238.626 142.447 238.524 142.298C238.43 142.139 238.3 142.013 238.132 141.92C237.964 141.827 237.763 141.761 237.53 141.724C237.306 141.687 237.063 141.668 236.802 141.668H235.248V144.02ZM236.634 140.702C236.886 140.702 237.114 140.688 237.32 140.66C237.534 140.623 237.716 140.562 237.866 140.478C238.024 140.394 238.146 140.282 238.23 140.142C238.323 140.002 238.37 139.825 238.37 139.61C238.37 139.386 238.314 139.209 238.202 139.078C238.09 138.947 237.94 138.849 237.754 138.784C237.576 138.709 237.371 138.663 237.138 138.644C236.914 138.616 236.685 138.602 236.452 138.602C236.237 138.602 236.018 138.607 235.794 138.616C235.579 138.625 235.397 138.635 235.248 138.644V140.702H236.634ZM236.606 145.126C236.055 145.126 235.546 145.098 235.08 145.042C234.613 144.995 234.244 144.939 233.974 144.874V137.79C234.244 137.725 234.613 137.669 235.08 137.622C235.546 137.566 236.055 137.538 236.606 137.538C236.988 137.538 237.362 137.571 237.726 137.636C238.09 137.701 238.412 137.813 238.692 137.972C238.972 138.121 239.196 138.331 239.364 138.602C239.541 138.863 239.63 139.19 239.63 139.582C239.63 139.937 239.541 140.24 239.364 140.492C239.186 140.744 238.948 140.94 238.65 141.08C239.051 141.22 239.368 141.43 239.602 141.71C239.844 141.981 239.966 142.363 239.966 142.858C239.966 143.297 239.877 143.661 239.7 143.95C239.532 144.239 239.294 144.473 238.986 144.65C238.687 144.827 238.332 144.949 237.922 145.014C237.511 145.089 237.072 145.126 236.606 145.126ZM248.069 141.36C248.069 141.939 247.985 142.461 247.817 142.928C247.649 143.395 247.411 143.796 247.103 144.132C246.805 144.468 246.445 144.729 246.025 144.916C245.605 145.093 245.148 145.182 244.653 145.182C244.159 145.182 243.701 145.093 243.281 144.916C242.861 144.729 242.497 144.468 242.189 144.132C241.891 143.796 241.657 143.395 241.489 142.928C241.321 142.461 241.237 141.939 241.237 141.36C241.237 140.791 241.321 140.273 241.489 139.806C241.657 139.33 241.891 138.924 242.189 138.588C242.497 138.252 242.861 137.995 243.281 137.818C243.701 137.631 244.159 137.538 244.653 137.538C245.148 137.538 245.605 137.631 246.025 137.818C246.445 137.995 246.805 138.252 247.103 138.588C247.411 138.924 247.649 139.33 247.817 139.806C247.985 140.273 248.069 140.791 248.069 141.36ZM246.711 141.36C246.711 140.539 246.525 139.89 246.151 139.414C245.787 138.929 245.288 138.686 244.653 138.686C244.019 138.686 243.515 138.929 243.141 139.414C242.777 139.89 242.595 140.539 242.595 141.36C242.595 142.181 242.777 142.835 243.141 143.32C243.515 143.796 244.019 144.034 244.653 144.034C245.288 144.034 245.787 143.796 246.151 143.32C246.525 142.835 246.711 142.181 246.711 141.36ZM255.865 145H254.563V141.78H251.203V145H249.901V137.72H251.203V140.688H254.563V137.72H255.865V145ZM260.568 144.062C260.876 144.062 261.147 144.057 261.38 144.048C261.623 144.029 261.824 144.001 261.982 143.964V141.794C261.889 141.747 261.735 141.71 261.52 141.682C261.315 141.645 261.063 141.626 260.764 141.626C260.568 141.626 260.358 141.64 260.134 141.668C259.92 141.696 259.719 141.757 259.532 141.85C259.355 141.934 259.206 142.055 259.084 142.214C258.963 142.363 258.902 142.564 258.902 142.816C258.902 143.283 259.052 143.609 259.35 143.796C259.649 143.973 260.055 144.062 260.568 144.062ZM260.456 137.538C260.979 137.538 261.418 137.608 261.772 137.748C262.136 137.879 262.426 138.07 262.64 138.322C262.864 138.565 263.023 138.859 263.116 139.204C263.21 139.54 263.256 139.913 263.256 140.324V144.874C263.144 144.893 262.986 144.921 262.78 144.958C262.584 144.986 262.36 145.014 262.108 145.042C261.856 145.07 261.581 145.093 261.282 145.112C260.993 145.14 260.704 145.154 260.414 145.154C260.004 145.154 259.626 145.112 259.28 145.028C258.935 144.944 258.636 144.813 258.384 144.636C258.132 144.449 257.936 144.207 257.796 143.908C257.656 143.609 257.586 143.25 257.586 142.83C257.586 142.429 257.666 142.083 257.824 141.794C257.992 141.505 258.216 141.271 258.496 141.094C258.776 140.917 259.103 140.786 259.476 140.702C259.85 140.618 260.242 140.576 260.652 140.576C260.783 140.576 260.918 140.585 261.058 140.604C261.198 140.613 261.329 140.632 261.45 140.66C261.581 140.679 261.693 140.697 261.786 140.716C261.88 140.735 261.945 140.749 261.982 140.758V140.394C261.982 140.179 261.959 139.969 261.912 139.764C261.866 139.549 261.782 139.363 261.66 139.204C261.539 139.036 261.371 138.905 261.156 138.812C260.951 138.709 260.68 138.658 260.344 138.658C259.915 138.658 259.537 138.691 259.21 138.756C258.893 138.812 258.655 138.873 258.496 138.938L258.342 137.86C258.51 137.785 258.79 137.715 259.182 137.65C259.574 137.575 259.999 137.538 260.456 137.538ZM266.245 137.72V139.862C266.245 140.413 266.385 140.8 266.665 141.024C266.945 141.239 267.327 141.346 267.813 141.346C268.167 141.346 268.461 141.327 268.695 141.29C268.937 141.253 269.152 141.211 269.339 141.164V137.72H270.641V145H269.339V142.172C269.264 142.191 269.166 142.214 269.045 142.242C268.923 142.27 268.783 142.298 268.625 142.326C268.475 142.345 268.317 142.363 268.149 142.382C267.981 142.401 267.817 142.41 267.659 142.41C267.257 142.41 266.889 142.368 266.553 142.284C266.226 142.2 265.941 142.06 265.699 141.864C265.465 141.668 265.279 141.411 265.139 141.094C265.008 140.767 264.943 140.361 264.943 139.876V137.72H266.245ZM275.348 144.062C275.656 144.062 275.926 144.057 276.16 144.048C276.402 144.029 276.603 144.001 276.762 143.964V141.794C276.668 141.747 276.514 141.71 276.3 141.682C276.094 141.645 275.842 141.626 275.544 141.626C275.348 141.626 275.138 141.64 274.914 141.668C274.699 141.696 274.498 141.757 274.312 141.85C274.134 141.934 273.985 142.055 273.864 142.214C273.742 142.363 273.682 142.564 273.682 142.816C273.682 143.283 273.831 143.609 274.13 143.796C274.428 143.973 274.834 144.062 275.348 144.062ZM275.236 137.538C275.758 137.538 276.197 137.608 276.552 137.748C276.916 137.879 277.205 138.07 277.42 138.322C277.644 138.565 277.802 138.859 277.896 139.204C277.989 139.54 278.036 139.913 278.036 140.324V144.874C277.924 144.893 277.765 144.921 277.56 144.958C277.364 144.986 277.14 145.014 276.888 145.042C276.636 145.07 276.36 145.093 276.062 145.112C275.772 145.14 275.483 145.154 275.194 145.154C274.783 145.154 274.405 145.112 274.06 145.028C273.714 144.944 273.416 144.813 273.164 144.636C272.912 144.449 272.716 144.207 272.576 143.908C272.436 143.609 272.366 143.25 272.366 142.83C272.366 142.429 272.445 142.083 272.604 141.794C272.772 141.505 272.996 141.271 273.276 141.094C273.556 140.917 273.882 140.786 274.256 140.702C274.629 140.618 275.021 140.576 275.432 140.576C275.562 140.576 275.698 140.585 275.838 140.604C275.978 140.613 276.108 140.632 276.23 140.66C276.36 140.679 276.472 140.697 276.566 140.716C276.659 140.735 276.724 140.749 276.762 140.758V140.394C276.762 140.179 276.738 139.969 276.692 139.764C276.645 139.549 276.561 139.363 276.44 139.204C276.318 139.036 276.15 138.905 275.936 138.812C275.73 138.709 275.46 138.658 275.124 138.658C274.694 138.658 274.316 138.691 273.99 138.756C273.672 138.812 273.434 138.873 273.276 138.938L273.122 137.86C273.29 137.785 273.57 137.715 273.962 137.65C274.354 137.575 274.778 137.538 275.236 137.538ZM282.732 138.812C282.732 139.12 282.723 139.451 282.704 139.806C282.695 140.151 282.671 140.501 282.634 140.856C282.597 141.201 282.545 141.547 282.48 141.892C282.415 142.228 282.331 142.545 282.228 142.844C282.125 143.143 281.995 143.423 281.836 143.684C281.687 143.945 281.5 144.179 281.276 144.384C281.052 144.58 280.791 144.748 280.492 144.888C280.193 145.019 279.843 145.103 279.442 145.14L279.26 144.048C279.717 143.955 280.077 143.782 280.338 143.53C280.609 143.278 280.823 142.97 280.982 142.606C281.122 142.289 281.225 141.929 281.29 141.528C281.355 141.127 281.402 140.711 281.43 140.282C281.458 139.843 281.472 139.405 281.472 138.966C281.481 138.527 281.486 138.112 281.486 137.72H286.33V145H285.028V138.812H282.732ZM291.323 144.09C291.874 144.09 292.308 143.983 292.625 143.768C292.943 143.553 293.101 143.208 293.101 142.732C293.101 142.499 293.055 142.298 292.961 142.13C292.868 141.962 292.737 141.827 292.569 141.724C292.411 141.612 292.224 141.533 292.009 141.486C291.795 141.43 291.566 141.402 291.323 141.402C291.071 141.402 290.81 141.411 290.539 141.43C290.278 141.439 290.054 141.467 289.867 141.514V144.02C289.923 144.029 290.007 144.039 290.119 144.048C290.231 144.057 290.353 144.067 290.483 144.076C290.623 144.076 290.763 144.081 290.903 144.09C291.053 144.09 291.193 144.09 291.323 144.09ZM288.565 144.846V137.72H289.867V140.506C289.942 140.487 290.04 140.469 290.161 140.45C290.292 140.431 290.427 140.413 290.567 140.394C290.717 140.375 290.871 140.361 291.029 140.352C291.188 140.343 291.337 140.338 291.477 140.338C291.879 140.338 292.257 140.385 292.611 140.478C292.966 140.562 293.274 140.702 293.535 140.898C293.806 141.085 294.021 141.332 294.179 141.64C294.338 141.939 294.417 142.298 294.417 142.718C294.417 143.157 294.343 143.53 294.193 143.838C294.044 144.146 293.829 144.398 293.549 144.594C293.269 144.79 292.933 144.93 292.541 145.014C292.159 145.107 291.729 145.154 291.253 145.154C290.787 145.154 290.329 145.126 289.881 145.07C289.433 145.023 288.995 144.949 288.565 144.846ZM301.926 145H300.624V141.78H297.264V145H295.962V137.72H297.264V140.688H300.624V137.72H301.926V145ZM306.839 141.402C306.587 141.402 306.34 141.411 306.097 141.43C305.864 141.439 305.654 141.467 305.467 141.514V144.02C305.523 144.029 305.602 144.039 305.705 144.048C305.817 144.057 305.934 144.067 306.055 144.076C306.186 144.076 306.316 144.081 306.447 144.09C306.578 144.09 306.694 144.09 306.797 144.09C307.366 144.09 307.805 143.983 308.113 143.768C308.421 143.553 308.575 143.208 308.575 142.732C308.575 142.499 308.524 142.298 308.421 142.13C308.328 141.962 308.197 141.827 308.029 141.724C307.87 141.612 307.688 141.533 307.483 141.486C307.278 141.43 307.063 141.402 306.839 141.402ZM304.165 137.72H305.467V140.506C305.626 140.469 305.854 140.431 306.153 140.394C306.461 140.357 306.755 140.338 307.035 140.338C307.418 140.338 307.782 140.385 308.127 140.478C308.472 140.562 308.776 140.702 309.037 140.898C309.298 141.085 309.504 141.332 309.653 141.64C309.812 141.939 309.891 142.298 309.891 142.718C309.891 143.157 309.816 143.53 309.667 143.838C309.518 144.146 309.308 144.398 309.037 144.594C308.766 144.79 308.44 144.93 308.057 145.014C307.674 145.107 307.254 145.154 306.797 145.154C306.358 145.154 305.915 145.126 305.467 145.07C305.019 145.023 304.585 144.949 304.165 144.846V137.72ZM312.537 145H311.235V137.72H312.537V145ZM320.892 137.72V145H319.632V139.456C319.352 139.811 319.044 140.226 318.708 140.702C318.372 141.178 318.036 141.673 317.7 142.186C317.364 142.69 317.042 143.189 316.734 143.684C316.426 144.179 316.16 144.617 315.936 145H314.774V137.72H316.034V142.956C316.277 142.555 316.552 142.116 316.86 141.64C317.168 141.155 317.486 140.679 317.812 140.212C318.148 139.736 318.48 139.283 318.806 138.854C319.142 138.415 319.455 138.037 319.744 137.72H320.892ZM317.84 136.544C317.252 136.544 316.772 136.395 316.398 136.096C316.034 135.797 315.815 135.382 315.74 134.85L316.734 134.584C316.809 134.883 316.935 135.125 317.112 135.312C317.29 135.499 317.532 135.592 317.84 135.592C318.148 135.592 318.391 135.499 318.568 135.312C318.746 135.125 318.872 134.883 318.946 134.584L319.926 134.85C319.852 135.382 319.632 135.797 319.268 136.096C318.904 136.395 318.428 136.544 317.84 136.544ZM327.642 144.02C327.698 144.029 327.777 144.039 327.88 144.048C327.983 144.057 328.099 144.067 328.23 144.076C328.361 144.076 328.496 144.081 328.636 144.09C328.785 144.09 328.925 144.09 329.056 144.09C329.327 144.09 329.583 144.071 329.826 144.034C330.078 143.997 330.293 143.931 330.47 143.838C330.657 143.745 330.801 143.623 330.904 143.474C331.016 143.315 331.072 143.115 331.072 142.872C331.072 142.639 331.021 142.447 330.918 142.298C330.825 142.139 330.694 142.013 330.526 141.92C330.358 141.827 330.157 141.761 329.924 141.724C329.7 141.687 329.457 141.668 329.196 141.668H327.642V144.02ZM329.028 140.702C329.28 140.702 329.509 140.688 329.714 140.66C329.929 140.623 330.111 140.562 330.26 140.478C330.419 140.394 330.54 140.282 330.624 140.142C330.717 140.002 330.764 139.825 330.764 139.61C330.764 139.386 330.708 139.209 330.596 139.078C330.484 138.947 330.335 138.849 330.148 138.784C329.971 138.709 329.765 138.663 329.532 138.644C329.308 138.616 329.079 138.602 328.846 138.602C328.631 138.602 328.412 138.607 328.188 138.616C327.973 138.625 327.791 138.635 327.642 138.644V140.702H329.028ZM329 145.126C328.449 145.126 327.941 145.098 327.474 145.042C327.007 144.995 326.639 144.939 326.368 144.874V137.79C326.639 137.725 327.007 137.669 327.474 137.622C327.941 137.566 328.449 137.538 329 137.538C329.383 137.538 329.756 137.571 330.12 137.636C330.484 137.701 330.806 137.813 331.086 137.972C331.366 138.121 331.59 138.331 331.758 138.602C331.935 138.863 332.024 139.19 332.024 139.582C332.024 139.937 331.935 140.24 331.758 140.492C331.581 140.744 331.343 140.94 331.044 141.08C331.445 141.22 331.763 141.43 331.996 141.71C332.239 141.981 332.36 142.363 332.36 142.858C332.36 143.297 332.271 143.661 332.094 143.95C331.926 144.239 331.688 144.473 331.38 144.65C331.081 144.827 330.727 144.949 330.316 145.014C329.905 145.089 329.467 145.126 329 145.126ZM335.886 137.538C336.306 137.538 336.698 137.58 337.062 137.664C337.426 137.748 337.739 137.874 338 138.042C338.261 138.21 338.467 138.42 338.616 138.672C338.765 138.924 338.84 139.218 338.84 139.554C338.84 139.769 338.803 139.965 338.728 140.142C338.653 140.319 338.56 140.478 338.448 140.618C338.336 140.758 338.21 140.879 338.07 140.982C337.939 141.075 337.813 141.141 337.692 141.178C338.121 141.309 338.457 141.542 338.7 141.878C338.952 142.205 339.078 142.62 339.078 143.124C339.078 143.815 338.798 144.328 338.238 144.664C337.678 145 336.917 145.168 335.956 145.168C335.368 145.168 334.859 145.121 334.43 145.028C334.01 144.935 333.711 144.846 333.534 144.762L333.758 143.656C333.907 143.712 334.173 143.791 334.556 143.894C334.948 143.987 335.415 144.034 335.956 144.034C336.544 144.034 336.992 143.945 337.3 143.768C337.608 143.581 337.762 143.306 337.762 142.942C337.762 142.681 337.701 142.471 337.58 142.312C337.468 142.144 337.323 142.018 337.146 141.934C336.969 141.85 336.777 141.794 336.572 141.766C336.367 141.738 336.175 141.724 335.998 141.724H334.78V140.688H335.956C336.124 140.688 336.297 140.679 336.474 140.66C336.661 140.632 336.829 140.581 336.978 140.506C337.137 140.431 337.267 140.329 337.37 140.198C337.473 140.058 337.524 139.876 337.524 139.652C337.524 139.475 337.477 139.325 337.384 139.204C337.3 139.073 337.183 138.966 337.034 138.882C336.885 138.798 336.707 138.737 336.502 138.7C336.306 138.653 336.101 138.63 335.886 138.63C335.718 138.63 335.536 138.644 335.34 138.672C335.144 138.7 334.953 138.737 334.766 138.784C334.579 138.821 334.411 138.863 334.262 138.91C334.113 138.957 334.005 138.999 333.94 139.036L333.702 137.916C333.777 137.888 333.893 137.851 334.052 137.804C334.211 137.757 334.388 137.715 334.584 137.678C334.789 137.641 335.004 137.608 335.228 137.58C335.452 137.552 335.671 137.538 335.886 137.538ZM346.852 145H345.55V141.78H342.19V145H340.888V137.72H342.19V140.688H345.55V137.72H346.852V145ZM355.517 141.36C355.517 141.939 355.433 142.461 355.265 142.928C355.097 143.395 354.859 143.796 354.551 144.132C354.252 144.468 353.893 144.729 353.473 144.916C353.053 145.093 352.595 145.182 352.101 145.182C351.606 145.182 351.149 145.093 350.729 144.916C350.309 144.729 349.945 144.468 349.637 144.132C349.338 143.796 349.105 143.395 348.937 142.928C348.769 142.461 348.685 141.939 348.685 141.36C348.685 140.791 348.769 140.273 348.937 139.806C349.105 139.33 349.338 138.924 349.637 138.588C349.945 138.252 350.309 137.995 350.729 137.818C351.149 137.631 351.606 137.538 352.101 137.538C352.595 137.538 353.053 137.631 353.473 137.818C353.893 137.995 354.252 138.252 354.551 138.588C354.859 138.924 355.097 139.33 355.265 139.806C355.433 140.273 355.517 140.791 355.517 141.36ZM354.159 141.36C354.159 140.539 353.972 139.89 353.599 139.414C353.235 138.929 352.735 138.686 352.101 138.686C351.466 138.686 350.962 138.929 350.589 139.414C350.225 139.89 350.043 140.539 350.043 141.36C350.043 142.181 350.225 142.835 350.589 143.32C350.962 143.796 351.466 144.034 352.101 144.034C352.735 144.034 353.235 143.796 353.599 143.32C353.972 142.835 354.159 142.181 354.159 141.36ZM360.513 145.168C359.925 145.168 359.407 145.075 358.959 144.888C358.52 144.701 358.147 144.44 357.839 144.104C357.54 143.768 357.316 143.371 357.167 142.914C357.017 142.447 356.943 141.934 356.943 141.374C356.943 140.814 357.022 140.301 357.181 139.834C357.349 139.367 357.582 138.966 357.881 138.63C358.179 138.285 358.543 138.019 358.973 137.832C359.411 137.636 359.897 137.538 360.429 137.538C360.755 137.538 361.082 137.566 361.409 137.622C361.735 137.678 362.048 137.767 362.347 137.888L362.053 138.994C361.857 138.901 361.628 138.826 361.367 138.77C361.115 138.714 360.844 138.686 360.555 138.686C359.827 138.686 359.267 138.915 358.875 139.372C358.492 139.829 358.301 140.497 358.301 141.374C358.301 141.766 358.343 142.125 358.427 142.452C358.52 142.779 358.66 143.059 358.847 143.292C359.043 143.525 359.29 143.707 359.589 143.838C359.887 143.959 360.251 144.02 360.681 144.02C361.026 144.02 361.339 143.987 361.619 143.922C361.899 143.857 362.118 143.787 362.277 143.712L362.459 144.804C362.384 144.851 362.277 144.897 362.137 144.944C361.997 144.981 361.838 145.014 361.661 145.042C361.483 145.079 361.292 145.107 361.087 145.126C360.891 145.154 360.699 145.168 360.513 145.168Z" fill="black"/>
<path d="M214.686 44.298V45.474H211.634V54H210.276V45.474H207.224V44.298H214.686ZM221.696 50.36C221.696 50.9387 221.612 51.4613 221.444 51.928C221.276 52.3947 221.038 52.796 220.73 53.132C220.432 53.468 220.072 53.7293 219.652 53.916C219.232 54.0933 218.775 54.182 218.28 54.182C217.786 54.182 217.328 54.0933 216.908 53.916C216.488 53.7293 216.124 53.468 215.816 53.132C215.518 52.796 215.284 52.3947 215.116 51.928C214.948 51.4613 214.864 50.9387 214.864 50.36C214.864 49.7907 214.948 49.2727 215.116 48.806C215.284 48.33 215.518 47.924 215.816 47.588C216.124 47.252 216.488 46.9953 216.908 46.818C217.328 46.6313 217.786 46.538 218.28 46.538C218.775 46.538 219.232 46.6313 219.652 46.818C220.072 46.9953 220.432 47.252 220.73 47.588C221.038 47.924 221.276 48.33 221.444 48.806C221.612 49.2727 221.696 49.7907 221.696 50.36ZM220.338 50.36C220.338 49.5387 220.152 48.89 219.778 48.414C219.414 47.9287 218.915 47.686 218.28 47.686C217.646 47.686 217.142 47.9287 216.768 48.414C216.404 48.89 216.222 49.5387 216.222 50.36C216.222 51.1813 216.404 51.8347 216.768 52.32C217.142 52.796 217.646 53.034 218.28 53.034C218.915 53.034 219.414 52.796 219.778 52.32C220.152 51.8347 220.338 51.1813 220.338 50.36ZM228.582 50.374C228.582 49.5247 228.372 48.8713 227.952 48.414C227.532 47.9567 226.972 47.728 226.272 47.728C225.88 47.728 225.572 47.742 225.348 47.77C225.134 47.798 224.961 47.8307 224.83 47.868V52.46C224.989 52.5907 225.218 52.7167 225.516 52.838C225.815 52.9593 226.142 53.02 226.496 53.02C226.87 53.02 227.187 52.9547 227.448 52.824C227.719 52.684 227.938 52.4973 228.106 52.264C228.274 52.0213 228.396 51.7413 228.47 51.424C228.545 51.0973 228.582 50.7473 228.582 50.374ZM229.94 50.374C229.94 50.9247 229.866 51.4333 229.716 51.9C229.576 52.3667 229.366 52.768 229.086 53.104C228.806 53.44 228.461 53.7013 228.05 53.888C227.649 54.0747 227.187 54.168 226.664 54.168C226.244 54.168 225.871 54.112 225.544 54C225.227 53.888 224.989 53.7807 224.83 53.678V56.59H223.528V46.944C223.836 46.8693 224.219 46.79 224.676 46.706C225.143 46.6127 225.68 46.566 226.286 46.566C226.846 46.566 227.35 46.6547 227.798 46.832C228.246 47.0093 228.629 47.2613 228.946 47.588C229.264 47.9147 229.506 48.316 229.674 48.792C229.852 49.2587 229.94 49.786 229.94 50.374ZM236.28 47.812H233.074V54H231.772V46.72H236.28V47.812ZM244.05 50.36C244.05 50.9387 243.966 51.4613 243.798 51.928C243.63 52.3947 243.392 52.796 243.084 53.132C242.785 53.468 242.426 53.7293 242.006 53.916C241.586 54.0933 241.129 54.182 240.634 54.182C240.139 54.182 239.682 54.0933 239.262 53.916C238.842 53.7293 238.478 53.468 238.17 53.132C237.871 52.796 237.638 52.3947 237.47 51.928C237.302 51.4613 237.218 50.9387 237.218 50.36C237.218 49.7907 237.302 49.2727 237.47 48.806C237.638 48.33 237.871 47.924 238.17 47.588C238.478 47.252 238.842 46.9953 239.262 46.818C239.682 46.6313 240.139 46.538 240.634 46.538C241.129 46.538 241.586 46.6313 242.006 46.818C242.426 46.9953 242.785 47.252 243.084 47.588C243.392 47.924 243.63 48.33 243.798 48.806C243.966 49.2727 244.05 49.7907 244.05 50.36ZM242.692 50.36C242.692 49.5387 242.505 48.89 242.132 48.414C241.768 47.9287 241.269 47.686 240.634 47.686C239.999 47.686 239.495 47.9287 239.122 48.414C238.758 48.89 238.576 49.5387 238.576 50.36C238.576 51.1813 238.758 51.8347 239.122 52.32C239.495 52.796 239.999 53.034 240.634 53.034C241.269 53.034 241.768 52.796 242.132 52.32C242.505 51.8347 242.692 51.1813 242.692 50.36ZM247.156 53.02C247.212 53.0293 247.291 53.0387 247.394 53.048C247.496 53.0573 247.613 53.0667 247.744 53.076C247.874 53.076 248.01 53.0807 248.15 53.09C248.299 53.09 248.439 53.09 248.57 53.09C248.84 53.09 249.097 53.0713 249.34 53.034C249.592 52.9967 249.806 52.9313 249.984 52.838C250.17 52.7447 250.315 52.6233 250.418 52.474C250.53 52.3153 250.586 52.1147 250.586 51.872C250.586 51.6387 250.534 51.4473 250.432 51.298C250.338 51.1393 250.208 51.0133 250.04 50.92C249.872 50.8267 249.671 50.7613 249.438 50.724C249.214 50.6867 248.971 50.668 248.71 50.668H247.156V53.02ZM248.542 49.702C248.794 49.702 249.022 49.688 249.228 49.66C249.442 49.6227 249.624 49.562 249.774 49.478C249.932 49.394 250.054 49.282 250.138 49.142C250.231 49.002 250.278 48.8247 250.278 48.61C250.278 48.386 250.222 48.2087 250.11 48.078C249.998 47.9473 249.848 47.8493 249.662 47.784C249.484 47.7093 249.279 47.6627 249.046 47.644C248.822 47.616 248.593 47.602 248.36 47.602C248.145 47.602 247.926 47.6067 247.702 47.616C247.487 47.6253 247.305 47.6347 247.156 47.644V49.702H248.542ZM248.514 54.126C247.963 54.126 247.454 54.098 246.988 54.042C246.521 53.9953 246.152 53.9393 245.882 53.874V46.79C246.152 46.7247 246.521 46.6687 246.988 46.622C247.454 46.566 247.963 46.538 248.514 46.538C248.896 46.538 249.27 46.5707 249.634 46.636C249.998 46.7013 250.32 46.8133 250.6 46.972C250.88 47.1213 251.104 47.3313 251.272 47.602C251.449 47.8633 251.538 48.19 251.538 48.582C251.538 48.9367 251.449 49.24 251.272 49.492C251.094 49.744 250.856 49.94 250.558 50.08C250.959 50.22 251.276 50.43 251.51 50.71C251.752 50.9807 251.874 51.3633 251.874 51.858C251.874 52.2967 251.785 52.6607 251.608 52.95C251.44 53.2393 251.202 53.4727 250.894 53.65C250.595 53.8273 250.24 53.9487 249.83 54.014C249.419 54.0887 248.98 54.126 248.514 54.126ZM256.016 53.062C256.324 53.062 256.594 53.0573 256.828 53.048C257.07 53.0293 257.271 53.0013 257.43 52.964V50.794C257.336 50.7473 257.182 50.71 256.968 50.682C256.762 50.6447 256.51 50.626 256.212 50.626C256.016 50.626 255.806 50.64 255.582 50.668C255.367 50.696 255.166 50.7567 254.98 50.85C254.802 50.934 254.653 51.0553 254.532 51.214C254.41 51.3633 254.35 51.564 254.35 51.816C254.35 52.2827 254.499 52.6093 254.798 52.796C255.096 52.9733 255.502 53.062 256.016 53.062ZM255.904 46.538C256.426 46.538 256.865 46.608 257.22 46.748C257.584 46.8787 257.873 47.07 258.088 47.322C258.312 47.5647 258.47 47.8587 258.564 48.204C258.657 48.54 258.704 48.9133 258.704 49.324V53.874C258.592 53.8927 258.433 53.9207 258.228 53.958C258.032 53.986 257.808 54.014 257.556 54.042C257.304 54.07 257.028 54.0933 256.73 54.112C256.44 54.14 256.151 54.154 255.862 54.154C255.451 54.154 255.073 54.112 254.728 54.028C254.382 53.944 254.084 53.8133 253.832 53.636C253.58 53.4493 253.384 53.2067 253.244 52.908C253.104 52.6093 253.034 52.25 253.034 51.83C253.034 51.4287 253.113 51.0833 253.272 50.794C253.44 50.5047 253.664 50.2713 253.944 50.094C254.224 49.9167 254.55 49.786 254.924 49.702C255.297 49.618 255.689 49.576 256.1 49.576C256.23 49.576 256.366 49.5853 256.506 49.604C256.646 49.6133 256.776 49.632 256.898 49.66C257.028 49.6787 257.14 49.6973 257.234 49.716C257.327 49.7347 257.392 49.7487 257.43 49.758V49.394C257.43 49.1793 257.406 48.9693 257.36 48.764C257.313 48.5493 257.229 48.3627 257.108 48.204C256.986 48.036 256.818 47.9053 256.604 47.812C256.398 47.7093 256.128 47.658 255.792 47.658C255.362 47.658 254.984 47.6907 254.658 47.756C254.34 47.812 254.102 47.8727 253.944 47.938L253.79 46.86C253.958 46.7853 254.238 46.7153 254.63 46.65C255.022 46.5753 255.446 46.538 255.904 46.538ZM263.876 51.172C263.736 51.172 263.601 51.172 263.47 51.172C263.339 51.1627 263.213 51.1533 263.092 51.144C262.793 51.592 262.504 52.0727 262.224 52.586C261.953 53.09 261.711 53.5613 261.496 54H260.18C260.292 53.7293 260.423 53.454 260.572 53.174C260.721 52.8847 260.871 52.6047 261.02 52.334C261.179 52.0633 261.337 51.8067 261.496 51.564C261.655 51.3213 261.804 51.102 261.944 50.906C261.683 50.8127 261.468 50.7007 261.3 50.57C261.132 50.43 260.997 50.276 260.894 50.108C260.791 49.94 260.717 49.7627 260.67 49.576C260.633 49.38 260.614 49.184 260.614 48.988C260.614 48.5773 260.689 48.218 260.838 47.91C260.997 47.602 261.211 47.35 261.482 47.154C261.753 46.9487 262.07 46.7947 262.434 46.692C262.807 46.5893 263.213 46.538 263.652 46.538C264.268 46.538 264.791 46.566 265.22 46.622C265.649 46.678 266.009 46.7433 266.298 46.818V54H265.01V51.172H263.876ZM265.01 47.686C264.907 47.6673 264.735 47.6487 264.492 47.63C264.259 47.6113 263.988 47.602 263.68 47.602C263.148 47.602 262.719 47.714 262.392 47.938C262.065 48.1527 261.902 48.498 261.902 48.974C261.902 49.4407 262.07 49.7627 262.406 49.94C262.742 50.1173 263.176 50.206 263.708 50.206H265.01V47.686ZM277.74 54H276.438V50.78H273.078V54H271.776V46.72H273.078V49.688H276.438V46.72H277.74V54ZM282.443 53.062C282.751 53.062 283.022 53.0573 283.255 53.048C283.498 53.0293 283.699 53.0013 283.857 52.964V50.794C283.764 50.7473 283.61 50.71 283.395 50.682C283.19 50.6447 282.938 50.626 282.639 50.626C282.443 50.626 282.233 50.64 282.009 50.668C281.795 50.696 281.594 50.7567 281.407 50.85C281.23 50.934 281.081 51.0553 280.959 51.214C280.838 51.3633 280.777 51.564 280.777 51.816C280.777 52.2827 280.927 52.6093 281.225 52.796C281.524 52.9733 281.93 53.062 282.443 53.062ZM282.331 46.538C282.854 46.538 283.293 46.608 283.647 46.748C284.011 46.8787 284.301 47.07 284.515 47.322C284.739 47.5647 284.898 47.8587 284.991 48.204C285.085 48.54 285.131 48.9133 285.131 49.324V53.874C285.019 53.8927 284.861 53.9207 284.655 53.958C284.459 53.986 284.235 54.014 283.983 54.042C283.731 54.07 283.456 54.0933 283.157 54.112C282.868 54.14 282.579 54.154 282.289 54.154C281.879 54.154 281.501 54.112 281.155 54.028C280.81 53.944 280.511 53.8133 280.259 53.636C280.007 53.4493 279.811 53.2067 279.671 52.908C279.531 52.6093 279.461 52.25 279.461 51.83C279.461 51.4287 279.541 51.0833 279.699 50.794C279.867 50.5047 280.091 50.2713 280.371 50.094C280.651 49.9167 280.978 49.786 281.351 49.702C281.725 49.618 282.117 49.576 282.527 49.576C282.658 49.576 282.793 49.5853 282.933 49.604C283.073 49.6133 283.204 49.632 283.325 49.66C283.456 49.6787 283.568 49.6973 283.661 49.716C283.755 49.7347 283.82 49.7487 283.857 49.758V49.394C283.857 49.1793 283.834 48.9693 283.787 48.764C283.741 48.5493 283.657 48.3627 283.535 48.204C283.414 48.036 283.246 47.9053 283.031 47.812C282.826 47.7093 282.555 47.658 282.219 47.658C281.79 47.658 281.412 47.6907 281.085 47.756C280.768 47.812 280.53 47.8727 280.371 47.938L280.217 46.86C280.385 46.7853 280.665 46.7153 281.057 46.65C281.449 46.5753 281.874 46.538 282.331 46.538ZM293.104 52.922H294.084V56.03H292.852V54H287.294V46.72H288.596V52.922H291.802V46.72H293.104V52.922ZM295.091 50.374C295.091 49.73 295.184 49.17 295.371 48.694C295.558 48.2087 295.805 47.8073 296.113 47.49C296.421 47.1727 296.776 46.9347 297.177 46.776C297.578 46.6173 297.989 46.538 298.409 46.538C299.389 46.538 300.14 46.846 300.663 47.462C301.186 48.0687 301.447 48.9973 301.447 50.248C301.447 50.304 301.447 50.3787 301.447 50.472C301.447 50.556 301.442 50.6353 301.433 50.71H296.449C296.505 51.466 296.724 52.04 297.107 52.432C297.49 52.824 298.087 53.02 298.899 53.02C299.356 53.02 299.739 52.9827 300.047 52.908C300.364 52.824 300.602 52.7447 300.761 52.67L300.943 53.762C300.784 53.846 300.504 53.9347 300.103 54.028C299.711 54.1213 299.263 54.168 298.759 54.168C298.124 54.168 297.574 54.0747 297.107 53.888C296.65 53.692 296.272 53.426 295.973 53.09C295.674 52.754 295.45 52.3573 295.301 51.9C295.161 51.4333 295.091 50.9247 295.091 50.374ZM300.089 49.66C300.098 49.072 299.949 48.5913 299.641 48.218C299.342 47.8353 298.927 47.644 298.395 47.644C298.096 47.644 297.83 47.7047 297.597 47.826C297.373 47.938 297.182 48.0873 297.023 48.274C296.864 48.4607 296.738 48.6753 296.645 48.918C296.561 49.1607 296.505 49.408 296.477 49.66H300.089ZM309.281 54H307.979V50.78H304.619V54H303.317V46.72H304.619V49.688H307.979V46.72H309.281V54ZM314.18 50.038C314.47 50.2433 314.782 50.5047 315.118 50.822C315.454 51.13 315.781 51.466 316.098 51.83C316.425 52.194 316.728 52.5673 317.008 52.95C317.288 53.3233 317.526 53.6733 317.722 54H316.182C315.977 53.6827 315.734 53.3607 315.454 53.034C315.184 52.698 314.899 52.376 314.6 52.068C314.302 51.76 313.998 51.4753 313.69 51.214C313.382 50.9527 313.093 50.7333 312.822 50.556V54H311.52V46.72H312.822V49.842C313.046 49.6273 313.303 49.38 313.592 49.1C313.882 48.8107 314.171 48.5213 314.46 48.232C314.759 47.9333 315.034 47.6533 315.286 47.392C315.538 47.1213 315.744 46.8973 315.902 46.72H317.414C317.209 46.944 316.966 47.2007 316.686 47.49C316.416 47.77 316.131 48.0593 315.832 48.358C315.543 48.6567 315.254 48.9553 314.964 49.254C314.675 49.5433 314.414 49.8047 314.18 50.038ZM321.504 53.062C321.812 53.062 322.083 53.0573 322.316 53.048C322.559 53.0293 322.759 53.0013 322.918 52.964V50.794C322.825 50.7473 322.671 50.71 322.456 50.682C322.251 50.6447 321.999 50.626 321.7 50.626C321.504 50.626 321.294 50.64 321.07 50.668C320.855 50.696 320.655 50.7567 320.468 50.85C320.291 50.934 320.141 51.0553 320.02 51.214C319.899 51.3633 319.838 51.564 319.838 51.816C319.838 52.2827 319.987 52.6093 320.286 52.796C320.585 52.9733 320.991 53.062 321.504 53.062ZM321.392 46.538C321.915 46.538 322.353 46.608 322.708 46.748C323.072 46.8787 323.361 47.07 323.576 47.322C323.8 47.5647 323.959 47.8587 324.052 48.204C324.145 48.54 324.192 48.9133 324.192 49.324V53.874C324.08 53.8927 323.921 53.9207 323.716 53.958C323.52 53.986 323.296 54.014 323.044 54.042C322.792 54.07 322.517 54.0933 322.218 54.112C321.929 54.14 321.639 54.154 321.35 54.154C320.939 54.154 320.561 54.112 320.216 54.028C319.871 53.944 319.572 53.8133 319.32 53.636C319.068 53.4493 318.872 53.2067 318.732 52.908C318.592 52.6093 318.522 52.25 318.522 51.83C318.522 51.4287 318.601 51.0833 318.76 50.794C318.928 50.5047 319.152 50.2713 319.432 50.094C319.712 49.9167 320.039 49.786 320.412 49.702C320.785 49.618 321.177 49.576 321.588 49.576C321.719 49.576 321.854 49.5853 321.994 49.604C322.134 49.6133 322.265 49.632 322.386 49.66C322.517 49.6787 322.629 49.6973 322.722 49.716C322.815 49.7347 322.881 49.7487 322.918 49.758V49.394C322.918 49.1793 322.895 48.9693 322.848 48.764C322.801 48.5493 322.717 48.3627 322.596 48.204C322.475 48.036 322.307 47.9053 322.092 47.812C321.887 47.7093 321.616 47.658 321.28 47.658C320.851 47.658 320.473 47.6907 320.146 47.756C319.829 47.812 319.591 47.8727 319.432 47.938L319.278 46.86C319.446 46.7853 319.726 46.7153 320.118 46.65C320.51 46.5753 320.935 46.538 321.392 46.538Z" fill="black"/>
<path d="M2.52 104.236C3.216 103.948 3.936 103.624 4.68 103.264C5.448 102.88 6.192 102.472 6.912 102.04C7.632 101.584 8.316 101.116 8.964 100.636C9.636 100.132 10.236 99.604 10.764 99.052H14.508V124H9.144V106.036C8.424 106.516 7.62 106.96 6.732 107.368C5.844 107.752 4.98 108.088 4.14 108.376L2.52 104.236ZM38.3169 105.604C38.3169 106.516 38.1369 107.392 37.7769 108.232C37.4169 109.072 36.9489 109.888 36.3729 110.68C35.7969 111.448 35.1489 112.192 34.4289 112.912C33.7089 113.632 33.0009 114.316 32.3049 114.964C31.9449 115.3 31.5489 115.684 31.1169 116.116C30.7089 116.524 30.3129 116.944 29.9289 117.376C29.5449 117.808 29.1969 118.216 28.8849 118.6C28.5969 118.96 28.4169 119.26 28.3449 119.5H39.0729V124H22.4409C22.3929 123.736 22.3689 123.4 22.3689 122.992C22.3689 122.584 22.3689 122.296 22.3689 122.128C22.3689 120.976 22.5489 119.92 22.9089 118.96C23.2929 118 23.7849 117.112 24.3849 116.296C24.9849 115.456 25.6569 114.676 26.4009 113.956C27.1689 113.236 27.9249 112.516 28.6689 111.796C29.2449 111.244 29.7849 110.728 30.2889 110.248C30.7929 109.744 31.2369 109.264 31.6209 108.808C32.0049 108.328 32.3049 107.86 32.5209 107.404C32.7369 106.924 32.8449 106.444 32.8449 105.964C32.8449 104.908 32.5449 104.164 31.9449 103.732C31.3449 103.3 30.6009 103.084 29.7129 103.084C29.0649 103.084 28.4529 103.192 27.8769 103.408C27.3249 103.6 26.8089 103.84 26.3289 104.128C25.8729 104.392 25.4769 104.668 25.1409 104.956C24.8049 105.22 24.5529 105.436 24.3849 105.604L21.7209 101.86C22.7769 100.876 24.0009 100.072 25.3929 99.448C26.8089 98.8 28.3209 98.476 29.9289 98.476C31.3929 98.476 32.6529 98.644 33.7089 98.98C34.7649 99.316 35.6289 99.796 36.3009 100.42C36.9969 101.02 37.5009 101.764 37.8129 102.652C38.1489 103.516 38.3169 104.5 38.3169 105.604ZM60.1459 111.472C60.1459 115.672 59.3419 118.9 57.7339 121.156C56.1499 123.388 53.9539 124.504 51.1459 124.504C48.3379 124.504 46.1299 123.388 44.5219 121.156C42.9379 118.9 42.1459 115.672 42.1459 111.472C42.1459 109.384 42.3499 107.536 42.7579 105.928C43.1899 104.32 43.8019 102.964 44.5939 101.86C45.3859 100.756 46.3339 99.916 47.4379 99.34C48.5419 98.764 49.7779 98.476 51.1459 98.476C53.9539 98.476 56.1499 99.604 57.7339 101.86C59.3419 104.092 60.1459 107.296 60.1459 111.472ZM54.6739 111.472C54.6739 110.224 54.6139 109.096 54.4939 108.088C54.3739 107.056 54.1819 106.168 53.9179 105.424C53.6539 104.68 53.2939 104.104 52.8379 103.696C52.3819 103.288 51.8179 103.084 51.1459 103.084C50.4739 103.084 49.9099 103.288 49.4539 103.696C49.0219 104.104 48.6619 104.68 48.3739 105.424C48.1099 106.168 47.9179 107.056 47.7979 108.088C47.6779 109.096 47.6179 110.224 47.6179 111.472C47.6179 112.72 47.6779 113.86 47.7979 114.892C47.9179 115.924 48.1099 116.812 48.3739 117.556C48.6619 118.3 49.0219 118.876 49.4539 119.284C49.9099 119.692 50.4739 119.896 51.1459 119.896C51.8179 119.896 52.3819 119.692 52.8379 119.284C53.2939 118.876 53.6539 118.3 53.9179 117.556C54.1819 116.812 54.3739 115.924 54.4939 114.892C54.6139 113.86 54.6739 112.72 54.6739 111.472ZM89.2553 111.472C89.2553 115.672 88.4513 118.9 86.8433 121.156C85.2593 123.388 83.0633 124.504 80.2553 124.504C77.4473 124.504 75.2393 123.388 73.6313 121.156C72.0473 118.9 71.2553 115.672 71.2553 111.472C71.2553 109.384 71.4593 107.536 71.8673 105.928C72.2993 104.32 72.9113 102.964 73.7033 101.86C74.4953 100.756 75.4433 99.916 76.5473 99.34C77.6513 98.764 78.8873 98.476 80.2553 98.476C83.0633 98.476 85.2593 99.604 86.8433 101.86C88.4513 104.092 89.2553 107.296 89.2553 111.472ZM83.7833 111.472C83.7833 110.224 83.7233 109.096 83.6033 108.088C83.4833 107.056 83.2913 106.168 83.0273 105.424C82.7633 104.68 82.4033 104.104 81.9473 103.696C81.4913 103.288 80.9273 103.084 80.2553 103.084C79.5833 103.084 79.0193 103.288 78.5633 103.696C78.1313 104.104 77.7713 104.68 77.4833 105.424C77.2193 106.168 77.0273 107.056 76.9073 108.088C76.7873 109.096 76.7273 110.224 76.7273 111.472C76.7273 112.72 76.7873 113.86 76.9073 114.892C77.0273 115.924 77.2193 116.812 77.4833 117.556C77.7713 118.3 78.1313 118.876 78.5633 119.284C79.0193 119.692 79.5833 119.896 80.2553 119.896C80.9273 119.896 81.4913 119.692 81.9473 119.284C82.4033 118.876 82.7633 118.3 83.0273 117.556C83.2913 116.812 83.4833 115.924 83.6033 114.892C83.7233 113.86 83.7833 112.72 83.7833 111.472ZM109.716 111.472C109.716 115.672 108.912 118.9 107.304 121.156C105.72 123.388 103.524 124.504 100.716 124.504C97.9082 124.504 95.7002 123.388 94.0922 121.156C92.5082 118.9 91.7162 115.672 91.7162 111.472C91.7162 109.384 91.9202 107.536 92.3282 105.928C92.7602 104.32 93.3722 102.964 94.1642 101.86C94.9562 100.756 95.9042 99.916 97.0082 99.34C98.1122 98.764 99.3482 98.476 100.716 98.476C103.524 98.476 105.72 99.604 107.304 101.86C108.912 104.092 109.716 107.296 109.716 111.472ZM104.244 111.472C104.244 110.224 104.184 109.096 104.064 108.088C103.944 107.056 103.752 106.168 103.488 105.424C103.224 104.68 102.864 104.104 102.408 103.696C101.952 103.288 101.388 103.084 100.716 103.084C100.044 103.084 99.4802 103.288 99.0242 103.696C98.5922 104.104 98.2322 104.68 97.9442 105.424C97.6802 106.168 97.4882 107.056 97.3682 108.088C97.2482 109.096 97.1882 110.224 97.1882 111.472C97.1882 112.72 97.2482 113.86 97.3682 114.892C97.4882 115.924 97.6802 116.812 97.9442 117.556C98.2322 118.3 98.5922 118.876 99.0242 119.284C99.4802 119.692 100.044 119.896 100.716 119.896C101.388 119.896 101.952 119.692 102.408 119.284C102.864 118.876 103.224 118.3 103.488 117.556C103.752 116.812 103.944 115.924 104.064 114.892C104.184 113.86 104.244 112.72 104.244 111.472ZM130.177 111.472C130.177 115.672 129.373 118.9 127.765 121.156C126.181 123.388 123.985 124.504 121.177 124.504C118.369 124.504 116.161 123.388 114.553 121.156C112.969 118.9 112.177 115.672 112.177 111.472C112.177 109.384 112.381 107.536 112.789 105.928C113.221 104.32 113.833 102.964 114.625 101.86C115.417 100.756 116.365 99.916 117.469 99.34C118.573 98.764 119.809 98.476 121.177 98.476C123.985 98.476 126.181 99.604 127.765 101.86C129.373 104.092 130.177 107.296 130.177 111.472ZM124.705 111.472C124.705 110.224 124.645 109.096 124.525 108.088C124.405 107.056 124.213 106.168 123.949 105.424C123.685 104.68 123.325 104.104 122.869 103.696C122.413 103.288 121.849 103.084 121.177 103.084C120.505 103.084 119.941 103.288 119.485 103.696C119.053 104.104 118.693 104.68 118.405 105.424C118.141 106.168 117.949 107.056 117.829 108.088C117.709 109.096 117.649 110.224 117.649 111.472C117.649 112.72 117.709 113.86 117.829 114.892C117.949 115.924 118.141 116.812 118.405 117.556C118.693 118.3 119.053 118.876 119.485 119.284C119.941 119.692 120.505 119.896 121.177 119.896C121.849 119.896 122.413 119.692 122.869 119.284C123.325 118.876 123.685 118.3 123.949 117.556C124.213 116.812 124.405 115.924 124.525 114.892C124.645 113.86 124.705 112.72 124.705 111.472ZM140.423 116.656H143.303V113.848H140.423V109.384H143.303V98.296H151.511C154.823 98.296 157.235 98.968 158.747 100.312C160.283 101.656 161.051 103.504 161.051 105.856C161.051 107.248 160.739 108.556 160.115 109.78C159.491 111.004 158.447 111.988 156.983 112.732C155.543 113.476 153.575 113.848 151.079 113.848H148.739V116.656H154.283V120.148H148.739V124H143.303V120.148H140.423V116.656ZM151.223 102.76H148.739V109.384H150.539C152.075 109.384 153.287 109.12 154.175 108.592C155.087 108.064 155.543 107.212 155.543 106.036C155.543 103.852 154.103 102.76 151.223 102.76Z" fill="#355DFB"/>
<path d="M0.812 140.142C0.812 139.311 0.933333 138.579 1.176 137.944C1.428 137.309 1.764 136.782 2.184 136.362C2.61333 135.933 3.108 135.611 3.668 135.396C4.23733 135.181 4.83933 135.074 5.474 135.074C6.09933 135.074 6.68733 135.181 7.238 135.396C7.798 135.611 8.288 135.933 8.708 136.362C9.128 136.782 9.45933 137.309 9.702 137.944C9.954 138.579 10.08 139.311 10.08 140.142C10.08 140.973 9.954 141.705 9.702 142.34C9.45933 142.975 9.128 143.507 8.708 143.936C8.288 144.356 7.798 144.673 7.238 144.888C6.68733 145.103 6.09933 145.21 5.474 145.21C4.83933 145.21 4.23733 145.103 3.668 144.888C3.108 144.673 2.61333 144.356 2.184 143.936C1.764 143.507 1.428 142.975 1.176 142.34C0.933333 141.705 0.812 140.973 0.812 140.142ZM2.24 140.142C2.24 140.73 2.31467 141.267 2.464 141.752C2.61333 142.228 2.82333 142.634 3.094 142.97C3.374 143.306 3.71 143.567 4.102 143.754C4.50333 143.931 4.95133 144.02 5.446 144.02C5.94067 144.02 6.384 143.931 6.776 143.754C7.168 143.567 7.49933 143.306 7.77 142.97C8.05 142.634 8.26467 142.228 8.414 141.752C8.56333 141.267 8.638 140.73 8.638 140.142C8.638 139.554 8.56333 139.022 8.414 138.546C8.26467 138.061 8.05 137.65 7.77 137.314C7.49933 136.978 7.168 136.721 6.776 136.544C6.384 136.357 5.94067 136.264 5.446 136.264C4.95133 136.264 4.50333 136.357 4.102 136.544C3.71 136.721 3.374 136.978 3.094 137.314C2.82333 137.65 2.61333 138.061 2.464 138.546C2.31467 139.022 2.24 139.554 2.24 140.142ZM13.1925 138.56C13.4818 138.327 13.8178 138.149 14.2005 138.028C14.5925 137.897 14.9658 137.832 15.3205 137.832C16.3658 137.832 17.1545 138.154 17.6865 138.798C18.2278 139.433 18.4985 140.319 18.4985 141.458C18.4985 141.943 18.4332 142.41 18.3025 142.858C18.1718 143.306 17.9665 143.703 17.6865 144.048C17.4158 144.393 17.0705 144.669 16.6505 144.874C16.2305 145.079 15.7312 145.182 15.1525 145.182C14.4898 145.182 13.9392 145.061 13.5005 144.818C13.0618 144.575 12.7118 144.244 12.4505 143.824C12.1985 143.404 12.0212 142.914 11.9185 142.354C11.8158 141.794 11.7645 141.201 11.7645 140.576C11.7645 139.764 11.8205 139.008 11.9325 138.308C12.0538 137.608 12.2685 136.992 12.5765 136.46C12.8845 135.928 13.3092 135.489 13.8505 135.144C14.4012 134.789 15.1058 134.551 15.9645 134.43C16.2165 134.393 16.4358 134.365 16.6225 134.346C16.8185 134.318 16.9865 134.295 17.1265 134.276C17.2758 134.257 17.4112 134.239 17.5325 134.22C17.6538 134.192 17.7798 134.164 17.9105 134.136L18.0505 135.312C17.9852 135.331 17.9152 135.345 17.8405 135.354C17.7752 135.363 17.6772 135.377 17.5465 135.396C17.4252 135.415 17.2572 135.438 17.0425 135.466C16.8372 135.494 16.5665 135.527 16.2305 135.564C15.3065 135.667 14.5972 135.947 14.1025 136.404C13.6078 136.861 13.3045 137.58 13.1925 138.56ZM13.1085 140.786C13.1085 141.225 13.1365 141.64 13.1925 142.032C13.2578 142.424 13.3652 142.769 13.5145 143.068C13.6732 143.367 13.8832 143.605 14.1445 143.782C14.4058 143.95 14.7418 144.034 15.1525 144.034C15.5072 144.034 15.8105 143.969 16.0625 143.838C16.3145 143.698 16.5198 143.511 16.6785 143.278C16.8372 143.045 16.9538 142.774 17.0285 142.466C17.1032 142.149 17.1405 141.813 17.1405 141.458C17.1405 141.141 17.1078 140.833 17.0425 140.534C16.9865 140.235 16.8792 139.969 16.7205 139.736C16.5618 139.503 16.3472 139.316 16.0765 139.176C15.8152 139.036 15.4838 138.966 15.0825 138.966C14.6905 138.966 14.3125 139.05 13.9485 139.218C13.5938 139.386 13.3185 139.591 13.1225 139.834C13.1132 139.937 13.1085 140.081 13.1085 140.268C13.1085 140.455 13.1085 140.627 13.1085 140.786ZM20.3427 145V137.72H21.6447V143.922H24.3327V137.72H25.6347V143.922H28.3227V137.72H29.6247V143.922H30.6047V147.03H29.3727V145H20.3427ZM34.4824 144.062C34.7904 144.062 35.0611 144.057 35.2944 144.048C35.5371 144.029 35.7378 144.001 35.8964 143.964V141.794C35.8031 141.747 35.6491 141.71 35.4344 141.682C35.2291 141.645 34.9771 141.626 34.6784 141.626C34.4824 141.626 34.2724 141.64 34.0484 141.668C33.8338 141.696 33.6331 141.757 33.4464 141.85C33.2691 141.934 33.1198 142.055 32.9984 142.214C32.8771 142.363 32.8164 142.564 32.8164 142.816C32.8164 143.283 32.9658 143.609 33.2644 143.796C33.5631 143.973 33.9691 144.062 34.4824 144.062ZM34.3704 137.538C34.8931 137.538 35.3318 137.608 35.6864 137.748C36.0504 137.879 36.3398 138.07 36.5544 138.322C36.7784 138.565 36.9371 138.859 37.0304 139.204C37.1238 139.54 37.1704 139.913 37.1704 140.324V144.874C37.0584 144.893 36.8998 144.921 36.6944 144.958C36.4984 144.986 36.2744 145.014 36.0224 145.042C35.7704 145.07 35.4951 145.093 35.1964 145.112C34.9071 145.14 34.6178 145.154 34.3284 145.154C33.9178 145.154 33.5398 145.112 33.1944 145.028C32.8491 144.944 32.5504 144.813 32.2984 144.636C32.0464 144.449 31.8504 144.207 31.7104 143.908C31.5704 143.609 31.5004 143.25 31.5004 142.83C31.5004 142.429 31.5798 142.083 31.7384 141.794C31.9064 141.505 32.1304 141.271 32.4104 141.094C32.6904 140.917 33.0171 140.786 33.3904 140.702C33.7638 140.618 34.1558 140.576 34.5664 140.576C34.6971 140.576 34.8324 140.585 34.9724 140.604C35.1124 140.613 35.2431 140.632 35.3644 140.66C35.4951 140.679 35.6071 140.697 35.7004 140.716C35.7938 140.735 35.8591 140.749 35.8964 140.758V140.394C35.8964 140.179 35.8731 139.969 35.8264 139.764C35.7798 139.549 35.6958 139.363 35.5744 139.204C35.4531 139.036 35.2851 138.905 35.0704 138.812C34.8651 138.709 34.5944 138.658 34.2584 138.658C33.8291 138.658 33.4511 138.691 33.1244 138.756C32.8071 138.812 32.5691 138.873 32.4104 138.938L32.2564 137.86C32.4244 137.785 32.7044 137.715 33.0964 137.65C33.4884 137.575 33.9131 137.538 34.3704 137.538ZM42.3429 142.172C42.2029 142.172 42.0676 142.172 41.9369 142.172C41.8062 142.163 41.6802 142.153 41.5589 142.144C41.2602 142.592 40.9709 143.073 40.6909 143.586C40.4202 144.09 40.1776 144.561 39.9629 145H38.6469C38.7589 144.729 38.8896 144.454 39.0389 144.174C39.1882 143.885 39.3376 143.605 39.4869 143.334C39.6456 143.063 39.8042 142.807 39.9629 142.564C40.1216 142.321 40.2709 142.102 40.4109 141.906C40.1496 141.813 39.9349 141.701 39.7669 141.57C39.5989 141.43 39.4636 141.276 39.3609 141.108C39.2582 140.94 39.1836 140.763 39.1369 140.576C39.0996 140.38 39.0809 140.184 39.0809 139.988C39.0809 139.577 39.1556 139.218 39.3049 138.91C39.4636 138.602 39.6782 138.35 39.9489 138.154C40.2196 137.949 40.5369 137.795 40.9009 137.692C41.2742 137.589 41.6802 137.538 42.1189 137.538C42.7349 137.538 43.2576 137.566 43.6869 137.622C44.1162 137.678 44.4756 137.743 44.7649 137.818V145H43.4769V142.172H42.3429ZM43.4769 138.686C43.3742 138.667 43.2016 138.649 42.9589 138.63C42.7256 138.611 42.4549 138.602 42.1469 138.602C41.6149 138.602 41.1856 138.714 40.8589 138.938C40.5322 139.153 40.3689 139.498 40.3689 139.974C40.3689 140.441 40.5369 140.763 40.8729 140.94C41.2089 141.117 41.6429 141.206 42.1749 141.206H43.4769V138.686ZM53.407 145.168C52.819 145.168 52.301 145.075 51.853 144.888C51.4144 144.701 51.041 144.44 50.733 144.104C50.4344 143.768 50.2104 143.371 50.061 142.914C49.9117 142.447 49.837 141.934 49.837 141.374C49.837 140.814 49.9164 140.301 50.075 139.834C50.243 139.367 50.4764 138.966 50.775 138.63C51.0737 138.285 51.4377 138.019 51.867 137.832C52.3057 137.636 52.791 137.538 53.323 137.538C53.6497 137.538 53.9764 137.566 54.303 137.622C54.6297 137.678 54.9424 137.767 55.241 137.888L54.947 138.994C54.751 138.901 54.5224 138.826 54.261 138.77C54.009 138.714 53.7384 138.686 53.449 138.686C52.721 138.686 52.161 138.915 51.769 139.372C51.3864 139.829 51.195 140.497 51.195 141.374C51.195 141.766 51.237 142.125 51.321 142.452C51.4144 142.779 51.5544 143.059 51.741 143.292C51.937 143.525 52.1844 143.707 52.483 143.838C52.7817 143.959 53.1457 144.02 53.575 144.02C53.9204 144.02 54.233 143.987 54.513 143.922C54.793 143.857 55.0124 143.787 55.171 143.712L55.353 144.804C55.2784 144.851 55.171 144.897 55.031 144.944C54.891 144.981 54.7324 145.014 54.555 145.042C54.3777 145.079 54.1864 145.107 53.981 145.126C53.785 145.154 53.5937 145.168 53.407 145.168ZM62.0939 137.72V138.812H59.7279V145H58.4259V138.812H56.0599V137.72H62.0939ZM69.8624 141.36C69.8624 141.939 69.7784 142.461 69.6104 142.928C69.4424 143.395 69.2044 143.796 68.8964 144.132C68.5977 144.468 68.2384 144.729 67.8184 144.916C67.3984 145.093 66.9411 145.182 66.4464 145.182C65.9517 145.182 65.4944 145.093 65.0744 144.916C64.6544 144.729 64.2904 144.468 63.9824 144.132C63.6837 143.796 63.4504 143.395 63.2824 142.928C63.1144 142.461 63.0304 141.939 63.0304 141.36C63.0304 140.791 63.1144 140.273 63.2824 139.806C63.4504 139.33 63.6837 138.924 63.9824 138.588C64.2904 138.252 64.6544 137.995 65.0744 137.818C65.4944 137.631 65.9517 137.538 66.4464 137.538C66.9411 137.538 67.3984 137.631 67.8184 137.818C68.2384 137.995 68.5977 138.252 68.8964 138.588C69.2044 138.924 69.4424 139.33 69.6104 139.806C69.7784 140.273 69.8624 140.791 69.8624 141.36ZM68.5044 141.36C68.5044 140.539 68.3177 139.89 67.9444 139.414C67.5804 138.929 67.0811 138.686 66.4464 138.686C65.8117 138.686 65.3077 138.929 64.9344 139.414C64.5704 139.89 64.3884 140.539 64.3884 141.36C64.3884 142.181 64.5704 142.835 64.9344 143.32C65.3077 143.796 65.8117 144.034 66.4464 144.034C67.0811 144.034 67.5804 143.796 67.9444 143.32C68.3177 142.835 68.5044 142.181 68.5044 141.36ZM77.8122 137.72V145H76.5522V139.456C76.2722 139.811 75.9642 140.226 75.6282 140.702C75.2922 141.178 74.9562 141.673 74.6202 142.186C74.2842 142.69 73.9622 143.189 73.6542 143.684C73.3462 144.179 73.0802 144.617 72.8562 145H71.6942V137.72H72.9542V142.956C73.1969 142.555 73.4722 142.116 73.7802 141.64C74.0882 141.155 74.4056 140.679 74.7322 140.212C75.0682 139.736 75.3996 139.283 75.7262 138.854C76.0622 138.415 76.3749 138.037 76.6642 137.72H77.8122ZM81.4337 139.638C81.3404 140.562 81.2704 141.486 81.2237 142.41C81.1771 143.325 81.1397 144.188 81.1117 145H79.8657C79.8844 144.431 79.9124 143.838 79.9497 143.222C79.9871 142.597 80.0291 141.971 80.0757 141.346C80.1224 140.711 80.1737 140.091 80.2297 139.484C80.2857 138.868 80.3464 138.28 80.4117 137.72H81.6017C81.9004 138.205 82.2504 138.873 82.6517 139.722C83.0531 140.562 83.5151 141.533 84.0377 142.634C84.5604 141.533 85.0224 140.562 85.4237 139.722C85.8251 138.873 86.1751 138.205 86.4737 137.72H87.6777C87.7431 138.28 87.8037 138.868 87.8597 139.484C87.9157 140.091 87.9671 140.711 88.0137 141.346C88.0604 141.971 88.1024 142.597 88.1397 143.222C88.1771 143.838 88.2051 144.431 88.2237 145H86.9357C86.9077 144.188 86.8704 143.325 86.8237 142.41C86.7771 141.486 86.7071 140.562 86.6137 139.638C86.4644 139.927 86.2917 140.277 86.0957 140.688C85.8997 141.089 85.7037 141.5 85.5077 141.92C85.3211 142.34 85.1437 142.741 84.9757 143.124C84.8077 143.507 84.6771 143.81 84.5837 144.034H83.4917C83.3891 143.801 83.2491 143.493 83.0717 143.11C82.9037 142.727 82.7217 142.326 82.5257 141.906C82.3391 141.477 82.1477 141.061 81.9517 140.66C81.7557 140.249 81.5831 139.909 81.4337 139.638ZM96.714 141.36C96.714 141.939 96.63 142.461 96.462 142.928C96.294 143.395 96.056 143.796 95.748 144.132C95.4493 144.468 95.09 144.729 94.67 144.916C94.25 145.093 93.7926 145.182 93.298 145.182C92.8033 145.182 92.346 145.093 91.926 144.916C91.506 144.729 91.142 144.468 90.834 144.132C90.5353 143.796 90.302 143.395 90.134 142.928C89.966 142.461 89.882 141.939 89.882 141.36C89.882 140.791 89.966 140.273 90.134 139.806C90.302 139.33 90.5353 138.924 90.834 138.588C91.142 138.252 91.506 137.995 91.926 137.818C92.346 137.631 92.8033 137.538 93.298 137.538C93.7926 137.538 94.25 137.631 94.67 137.818C95.09 137.995 95.4493 138.252 95.748 138.588C96.056 138.924 96.294 139.33 96.462 139.806C96.63 140.273 96.714 140.791 96.714 141.36ZM95.356 141.36C95.356 140.539 95.1693 139.89 94.796 139.414C94.432 138.929 93.9326 138.686 93.298 138.686C92.6633 138.686 92.1593 138.929 91.786 139.414C91.422 139.89 91.24 140.539 91.24 141.36C91.24 142.181 91.422 142.835 91.786 143.32C92.1593 143.796 92.6633 144.034 93.298 144.034C93.9326 144.034 94.432 143.796 94.796 143.32C95.1693 142.835 95.356 142.181 95.356 141.36ZM101.71 145.168C101.122 145.168 100.604 145.075 100.156 144.888C99.7171 144.701 99.3438 144.44 99.0358 144.104C98.7371 143.768 98.5131 143.371 98.3638 142.914C98.2144 142.447 98.1398 141.934 98.1398 141.374C98.1398 140.814 98.2191 140.301 98.3778 139.834C98.5458 139.367 98.7791 138.966 99.0778 138.63C99.3764 138.285 99.7404 138.019 100.17 137.832C100.608 137.636 101.094 137.538 101.626 137.538C101.952 137.538 102.279 137.566 102.606 137.622C102.932 137.678 103.245 137.767 103.544 137.888L103.25 138.994C103.054 138.901 102.825 138.826 102.564 138.77C102.312 138.714 102.041 138.686 101.752 138.686C101.024 138.686 100.464 138.915 100.072 139.372C99.6891 139.829 99.4978 140.497 99.4978 141.374C99.4978 141.766 99.5398 142.125 99.6238 142.452C99.7171 142.779 99.8571 143.059 100.044 143.292C100.24 143.525 100.487 143.707 100.786 143.838C101.084 143.959 101.448 144.02 101.878 144.02C102.223 144.02 102.536 143.987 102.816 143.922C103.096 143.857 103.315 143.787 103.474 143.712L103.656 144.804C103.581 144.851 103.474 144.897 103.334 144.944C103.194 144.981 103.035 145.014 102.858 145.042C102.68 145.079 102.489 145.107 102.284 145.126C102.088 145.154 101.896 145.168 101.71 145.168ZM110.397 137.72V138.812H108.031V145H106.729V138.812H104.363V137.72H110.397ZM114.497 144.09C115.048 144.09 115.482 143.983 115.799 143.768C116.116 143.553 116.275 143.208 116.275 142.732C116.275 142.499 116.228 142.298 116.135 142.13C116.042 141.962 115.911 141.827 115.743 141.724C115.584 141.612 115.398 141.533 115.183 141.486C114.968 141.43 114.74 141.402 114.497 141.402C114.245 141.402 113.984 141.411 113.713 141.43C113.452 141.439 113.228 141.467 113.041 141.514V144.02C113.097 144.029 113.181 144.039 113.293 144.048C113.405 144.057 113.526 144.067 113.657 144.076C113.797 144.076 113.937 144.081 114.077 144.09C114.226 144.09 114.366 144.09 114.497 144.09ZM111.739 144.846V137.72H113.041V140.506C113.116 140.487 113.214 140.469 113.335 140.45C113.466 140.431 113.601 140.413 113.741 140.394C113.89 140.375 114.044 140.361 114.203 140.352C114.362 140.343 114.511 140.338 114.651 140.338C115.052 140.338 115.43 140.385 115.785 140.478C116.14 140.562 116.448 140.702 116.709 140.898C116.98 141.085 117.194 141.332 117.353 141.64C117.512 141.939 117.591 142.298 117.591 142.718C117.591 143.157 117.516 143.53 117.367 143.838C117.218 144.146 117.003 144.398 116.723 144.594C116.443 144.79 116.107 144.93 115.715 145.014C115.332 145.107 114.903 145.154 114.427 145.154C113.96 145.154 113.503 145.126 113.055 145.07C112.607 145.023 112.168 144.949 111.739 144.846Z" fill="black"/>
</svg>
