<svg width="255" height="43" viewBox="0 0 255 43" fill="none" xmlns="http://www.w3.org/2000/svg">
<rect width="43" height="43" rx="6" transform="matrix(1 0 0 -1 0 43)" fill="white"/>
<rect width="43" height="43" rx="6" transform="matrix(1 0 0 -1 53 43)" fill="white"/>
<rect width="43" height="43" rx="6" transform="matrix(1 0 0 -1 106 43)" fill="white"/>
<rect width="43" height="43" rx="6" transform="matrix(1 0 0 -1 159 43)" fill="white"/>
<rect width="43" height="43" rx="6" transform="matrix(1 0 0 -1 212 43)" fill="white"/>
<path d="M183.375 21.5L179.062 18.625V24.375L183.375 21.5Z" stroke="black" stroke-linecap="round" stroke-linejoin="round"/>
<path d="M171.156 21.5C171.156 24.1733 171.432 25.7419 171.642 26.548C171.699 26.7682 171.806 26.9718 171.957 27.142C172.107 27.3122 172.296 27.4442 172.508 27.5268C175.516 28.6826 180.5 28.6509 180.5 28.6509C180.5 28.6509 185.484 28.6826 188.492 27.5268C188.704 27.4442 188.893 27.3123 189.043 27.142C189.194 26.9718 189.301 26.7682 189.358 26.548C189.568 25.7419 189.844 24.1734 189.844 21.5C189.844 18.8267 189.568 17.2581 189.358 16.452C189.301 16.2318 189.194 16.0282 189.043 15.858C188.893 15.6878 188.704 15.5559 188.492 15.4732C185.484 14.3174 180.5 14.3491 180.5 14.3491C180.5 14.3491 175.516 14.3174 172.508 15.4732C172.296 15.5558 172.107 15.6877 171.957 15.858C171.806 16.0282 171.699 16.2318 171.642 16.452C171.432 17.2581 171.156 18.8267 171.156 21.5Z" stroke="black" stroke-linecap="round" stroke-linejoin="round"/>
<path d="M226.313 27.9688C226.313 27.9688 229.906 27.25 230.625 25.0938C230.625 25.0938 224.875 22.9375 226.313 15.0313C226.313 15.0313 229.188 18.625 233.5 19.3438V17.9065C233.5 17.0808 233.785 16.2803 234.306 15.6396C234.826 14.9989 235.552 14.557 236.36 14.3883C237.168 14.2196 238.01 14.3343 238.744 14.7132C239.477 15.0921 240.058 15.712 240.389 16.4687L243.563 16.4688L240.688 19.3438C240.688 24.375 237.094 29.4063 230.625 29.4063C227.75 29.4063 226.313 27.9688 226.313 27.9688Z" stroke="black" stroke-linecap="round" stroke-linejoin="round"/>
<path d="M123.906 22.1174L131.985 29.2265C132.078 29.3088 132.192 29.3653 132.314 29.3907C132.435 29.416 132.562 29.4092 132.68 29.371C132.799 29.3328 132.905 29.2645 132.99 29.1727C133.074 29.0809 133.133 28.9689 133.16 28.8475L136.54 14.1012C136.569 13.9737 136.563 13.8407 136.522 13.7164C136.481 13.5921 136.407 13.4813 136.308 13.396C136.209 13.3106 136.088 13.254 135.959 13.2321C135.831 13.2102 135.698 13.2239 135.576 13.2717L118.995 19.7858C118.85 19.8425 118.728 19.9446 118.647 20.0766C118.565 20.2086 118.528 20.3636 118.542 20.5182C118.556 20.6729 118.619 20.8189 118.723 20.9345C118.826 21.0501 118.965 21.1291 119.117 21.1595L123.906 22.1174Z" stroke="black" stroke-linecap="round" stroke-linejoin="round"/>
<path d="M123.906 22.1174L136.135 13.2855" stroke="black" stroke-linecap="round" stroke-linejoin="round"/>
<path d="M127.941 25.6679L125.133 28.4755C125.033 28.5761 124.905 28.6445 124.765 28.6723C124.626 28.7 124.481 28.6858 124.35 28.6314C124.219 28.577 124.106 28.4848 124.027 28.3666C123.948 28.2484 123.906 28.1095 123.906 27.9673V22.1174" stroke="black" stroke-linecap="round" stroke-linejoin="round"/>
<path d="M67.0815 25.9022C66.0099 24.0957 65.6346 21.9602 66.0261 19.8966C66.4176 17.8331 67.549 15.9834 69.2077 14.6949C70.8665 13.4065 72.9386 12.7679 75.0349 12.8991C77.1311 13.0302 79.1074 13.9222 80.5926 15.4074C82.0778 16.8925 82.9698 18.8688 83.101 20.9651C83.2321 23.0614 82.5936 25.1335 81.3051 26.7922C80.0167 28.451 78.167 29.5824 76.1034 29.9739C74.0399 30.3654 71.9043 29.9901 70.0979 28.9186L70.0979 28.9185L67.119 29.7696C66.9957 29.8048 66.8653 29.8064 66.7412 29.7743C66.6172 29.7421 66.5039 29.6774 66.4133 29.5867C66.3227 29.4961 66.2579 29.3829 66.2258 29.2588C66.1936 29.1347 66.1952 29.0043 66.2304 28.881L67.0816 25.9021L67.0815 25.9022Z" stroke="black" stroke-linecap="round" stroke-linejoin="round"/>
<path d="M76.6665 26.5312C75.7209 26.5326 74.7843 26.3473 73.9104 25.9861C73.0366 25.6248 72.2426 25.0947 71.5739 24.4261C70.9053 23.7574 70.3752 22.9634 70.0139 22.0896C69.6527 21.2157 69.4674 20.2791 69.4688 19.3335C69.4709 18.6679 69.7369 18.0304 70.2085 17.5607C70.6801 17.091 71.3188 16.8276 71.9844 16.8281V16.8281C72.0935 16.8281 72.2008 16.857 72.2952 16.9118C72.3896 16.9666 72.4679 17.0454 72.522 17.1401L73.5724 18.9783C73.6358 19.0891 73.6684 19.2149 73.6671 19.3425C73.6657 19.4702 73.6304 19.5952 73.5647 19.7047L72.7211 21.1106C73.1551 22.0737 73.9263 22.8449 74.8894 23.2789V23.2789L76.2953 22.4353C76.4048 22.3696 76.5298 22.3343 76.6575 22.3329C76.7851 22.3316 76.9109 22.3642 77.0217 22.4276L78.8599 23.478C78.9546 23.5321 79.0334 23.6104 79.0882 23.7048C79.143 23.7992 79.1719 23.9065 79.1719 24.0156V24.0156C79.17 24.6805 78.9057 25.3177 78.4366 25.7887C77.9674 26.2598 77.3313 26.5266 76.6665 26.5312V26.5312Z" stroke="black" stroke-linecap="round" stroke-linejoin="round"/>
<path d="M21.5 30.125C26.2635 30.125 30.125 26.2635 30.125 21.5C30.125 16.7365 26.2635 12.875 21.5 12.875C16.7365 12.875 12.875 16.7365 12.875 21.5C12.875 26.2635 16.7365 30.125 21.5 30.125Z" stroke="black" stroke-linecap="round" stroke-linejoin="round"/>
<path d="M25.0938 17.9063H23.6562C23.0844 17.9063 22.5359 18.1335 22.1316 18.5379C21.7272 18.9423 21.5 19.4907 21.5 20.0626V30.1251" stroke="black" stroke-linecap="round" stroke-linejoin="round"/>
<path d="M18.625 22.9376H24.375" stroke="black" stroke-linecap="round" stroke-linejoin="round"/>
</svg>
